<svg xmlns="http://www.w3.org/2000/svg" viewBox="0 0 718.9 317.84"><defs><style>.cls-1,.cls-11,.cls-12,.cls-2,.cls-5,.cls-6{fill:none;}.cls-1,.cls-2{stroke:#be1622;}.cls-1,.cls-11,.cls-12,.cls-2,.cls-4,.cls-5,.cls-6,.cls-7,.cls-8{stroke-miterlimit:10;}.cls-1{stroke-width:9px;}.cls-2{stroke-width:8px;}.cls-3{fill:#be1622;}.cls-10,.cls-4,.cls-7,.cls-8{fill:#fff;}.cls-11,.cls-12,.cls-4,.cls-5,.cls-6,.cls-7,.cls-8{stroke:#fff;}.cls-5{stroke-width:3px;}.cls-6{stroke-width:4px;}.cls-7{stroke-width:0.25px;}.cls-8{stroke-width:0.75px;}.cls-9{fill:#e6007e;}.cls-11{stroke-width:2px;}.cls-12{stroke-width:6px;}</style></defs><g id="Capa_2" data-name="Capa 2"><g id="Capa_1-2" data-name="Capa 1"><ellipse class="cls-1" cx="82.82" cy="161.26" rx="44.38" ry="60.75"/><path class="cls-1" d="M33.11,42.32q-.18,35.16-.34,70.31h0a17,17,0,0,0,3.74,6.72s1.21,1.27,6.81,4.48h0"/><path class="cls-1" d="M5.59,4,4.51,124.4h0a32.39,32.39,0,0,0,11.9,11.51s3.83,2.16,21.63,7.66h0"/><path class="cls-1" d="M156.05,24.16l1,103h0A28.4,28.4,0,0,1,146.43,137s-3.4,1.85-19.23,6.56h0"/><path class="cls-1" d="M5.59,313.84,4.51,189h0a32.91,32.91,0,0,1,11.9-11.93s3.83-2.25,21.63-7.95h0"/><path class="cls-1" d="M158.64,290.52l1-104.74h0a28.55,28.55,0,0,0-10.58-10s-3.4-1.89-19.23-6.67h0"/><path class="cls-1" d="M31.72,273.11q-.16-36.93-.34-73.86h0a18.38,18.38,0,0,1,3.74-7.06s1.21-1.33,6.81-4.71h0"/><path class="cls-1" d="M132.94,61.36l.42,53.44h0a13.57,13.57,0,0,1-4.66,5.11s-1.5,1-8.48,3.4h0"/><path class="cls-1" d="M131.37,249.79q.18-26.88.38-53.75h0a13.14,13.14,0,0,0-4.23-5.13s-1.36-1-7.7-3.43h0"/><ellipse class="cls-2" cx="157.01" cy="15.66" rx="10.67" ry="11.66"/><ellipse class="cls-2" cx="130.79" cy="53.98" rx="10.67" ry="11.66"/><ellipse class="cls-2" cx="130.79" cy="261.45" rx="10.67" ry="11.66"/><ellipse class="cls-2" cx="157.01" cy="302.18" rx="10.67" ry="11.66"/><line class="cls-1" x1="82.82" y1="100.51" x2="82.82" y2="222.01"/><path class="cls-3" d="M69.18,125.71a43.89,43.89,0,0,0-7.42,17.77,2.57,2.57,0,0,0,1.75,3.07,2.54,2.54,0,0,0,3.07-1.74L73,126H68.17a20.78,20.78,0,0,1-.45,7.66A2.5,2.5,0,1,0,72.54,135,27.37,27.37,0,0,0,73,124.7a2.5,2.5,0,0,0-2.41-1.83,2.58,2.58,0,0,0-2.41,1.83l-6.41,18.78,4.82,1.33a40.51,40.51,0,0,1,6.92-16.58,2.51,2.51,0,0,0-.9-3.42,2.56,2.56,0,0,0-3.42.9Z"/><path class="cls-3" d="M61.7,176.29a17,17,0,0,0,8.67-1.94,16.93,16.93,0,0,0,7.24-4.65,16.74,16.74,0,0,0,4.65-7.24,16.92,16.92,0,0,0,1.94-8.67c-.26-5.82-2.17-11.86-6.59-15.91a23.38,23.38,0,0,0-15.91-6.59A16.94,16.94,0,0,0,53,133.23a16.74,16.74,0,0,0-7.24,4.65,16.93,16.93,0,0,0-4.65,7.24,17,17,0,0,0-1.94,8.67c.26,5.82,2.17,11.85,6.59,15.91a23.41,23.41,0,0,0,15.91,6.59Z"/><path class="cls-3" d="M39.2,153.79a153.06,153.06,0,0,0-.15,20.09A16.9,16.9,0,0,0,41,182.55a16.93,16.93,0,0,0,4.65,7.24,16.74,16.74,0,0,0,7.24,4.65,16.9,16.9,0,0,0,8.67,1.94l6-.8a22.51,22.51,0,0,0,9.93-5.79L81,185.24a22.44,22.44,0,0,0,3.07-11.36,153.06,153.06,0,0,1,.15-20.09,16.89,16.89,0,0,0-1.93-8.67,16.86,16.86,0,0,0-4.66-7.24,16.69,16.69,0,0,0-7.24-4.65,16.9,16.9,0,0,0-8.67-1.94l-6,.8a22.42,22.42,0,0,0-9.92,5.79l-3.52,4.55a22.45,22.45,0,0,0-3.08,11.36Z"/><path class="cls-3" d="M63.75,208.62a15.48,15.48,0,0,0,10.6-4.4,15.28,15.28,0,0,0,4.4-10.6c-.18-3.88-1.45-7.91-4.4-10.61a15,15,0,0,0-21.21,0,15.23,15.23,0,0,0-4.39,10.61c.17,3.88,1.44,7.9,4.39,10.6a15.56,15.56,0,0,0,10.61,4.4Z"/><path class="cls-3" d="M67.15,207.26a15.48,15.48,0,0,0,10.61-4.4,15.23,15.23,0,0,0,4.39-10.6c-.17-3.88-1.45-7.91-4.39-10.61a15,15,0,0,0-21.22,0,15.23,15.23,0,0,0-4.39,10.61c.17,3.87,1.45,7.9,4.39,10.6a15.59,15.59,0,0,0,10.61,4.4Z"/><path class="cls-3" d="M65.45,148.7a15.47,15.47,0,0,0,10.6-4.39,15.24,15.24,0,0,0,4.4-10.61c-.18-3.88-1.45-7.9-4.4-10.6a15,15,0,0,0-21.21,0,15.23,15.23,0,0,0-4.39,10.6c.17,3.88,1.45,7.9,4.39,10.61a15.61,15.61,0,0,0,10.61,4.39Z"/><path class="cls-3" d="M66.13,145.64a15.43,15.43,0,0,0,10.6-4.4,15.19,15.19,0,0,0,4.4-10.6c-.18-3.88-1.45-7.9-4.4-10.61a15,15,0,0,0-21.21,0,15.23,15.23,0,0,0-4.39,10.61c.17,3.88,1.45,7.9,4.39,10.6a15.57,15.57,0,0,0,10.61,4.4Z"/><path class="cls-3" d="M57.28,153.47a15.48,15.48,0,0,0,10.6-4.4,15.24,15.24,0,0,0,4.4-10.6c-.18-3.88-1.45-7.9-4.4-10.61a15,15,0,0,0-21.21,0,15.23,15.23,0,0,0-4.39,10.61c.17,3.88,1.45,7.9,4.39,10.6a15.57,15.57,0,0,0,10.61,4.4Z"/><path class="cls-3" d="M58.64,150.4A15.47,15.47,0,0,0,69.25,146a15.23,15.23,0,0,0,4.39-10.61c-.17-3.88-1.45-7.9-4.39-10.6a15,15,0,0,0-21.22,0,15.23,15.23,0,0,0-4.39,10.6c.17,3.88,1.45,7.91,4.39,10.61a15.61,15.61,0,0,0,10.61,4.39Z"/><path class="cls-3" d="M60.68,144.28a15.48,15.48,0,0,0,10.61-4.4,15.23,15.23,0,0,0,4.39-10.6c-.17-3.88-1.45-7.91-4.39-10.61a15,15,0,0,0-21.22,0,15.23,15.23,0,0,0-4.39,10.61c.18,3.88,1.45,7.9,4.39,10.6a15.59,15.59,0,0,0,10.61,4.4Z"/><path class="cls-3" d="M64.77,137.13a15.48,15.48,0,0,0,10.6-4.4,15.28,15.28,0,0,0,4.4-10.6c-.18-3.88-1.45-7.91-4.4-10.61a15,15,0,0,0-21.21,0,15.23,15.23,0,0,0-4.39,10.61c.17,3.88,1.44,7.9,4.39,10.6a15.56,15.56,0,0,0,10.61,4.4Z"/><path class="cls-3" d="M66.13,135.09a15.48,15.48,0,0,0,10.6-4.4,15.19,15.19,0,0,0,4.4-10.6c-.18-3.88-1.45-7.91-4.4-10.61a15,15,0,0,0-21.21,0,15.23,15.23,0,0,0-4.39,10.61c.17,3.87,1.45,7.9,4.39,10.6a15.57,15.57,0,0,0,10.61,4.4Z"/><path class="cls-3" d="M67.49,132.7a15.47,15.47,0,0,0,10.61-4.39,15.23,15.23,0,0,0,4.39-10.61c-.17-3.88-1.45-7.9-4.39-10.6a15,15,0,0,0-21.22,0,15.23,15.23,0,0,0-4.39,10.6c.17,3.88,1.45,7.9,4.39,10.61a15.63,15.63,0,0,0,10.61,4.39Z"/><path class="cls-3" d="M68.17,131.34A15.47,15.47,0,0,0,78.78,127a15.23,15.23,0,0,0,4.39-10.61c-.17-3.88-1.45-7.9-4.39-10.61a15,15,0,0,0-21.22,0,15.25,15.25,0,0,0-4.39,10.61c.17,3.88,1.45,7.9,4.39,10.61a15.63,15.63,0,0,0,10.61,4.39Z"/><path class="cls-3" d="M64.77,216.79a15.48,15.48,0,0,0,10.6-4.4,15.28,15.28,0,0,0,4.4-10.6c-.18-3.88-1.45-7.91-4.4-10.61a15,15,0,0,0-21.21,0,15.23,15.23,0,0,0-4.39,10.61c.17,3.88,1.44,7.9,4.39,10.6a15.56,15.56,0,0,0,10.61,4.4Z"/><path class="cls-3" d="M66.81,219.17a15.47,15.47,0,0,0,10.61-4.39,15.23,15.23,0,0,0,4.39-10.61c-.17-3.88-1.45-7.9-4.39-10.61a15.63,15.63,0,0,0-10.61-4.39,15.47,15.47,0,0,0-10.61,4.39,15.25,15.25,0,0,0-4.39,10.61c.17,3.88,1.45,7.9,4.39,10.61a15.61,15.61,0,0,0,10.61,4.39Z"/><path class="cls-3" d="M68.51,221.21a15.47,15.47,0,0,0,10.61-4.39,15.23,15.23,0,0,0,4.39-10.61c-.17-3.88-1.45-7.9-4.39-10.6a15,15,0,0,0-21.22,0,15.23,15.23,0,0,0-4.39,10.6c.18,3.88,1.45,7.91,4.39,10.61a15.63,15.63,0,0,0,10.61,4.39Z"/><text/><path class="cls-4" d="M269.18,86.16A60.62,60.62,0,0,0,238,73.91c-6.1-.53-16.39-1.42-27.06,4.6a41,41,0,0,0-16.34,17.36c-3.32,6.63-4,12.66-4.6,17.87-.55,4.87-1.18,10.34,0,15.83,2.79,13,15,23.19,26,27.57,5.75,2.3,10.54,2.76,29.11,8.68,2.54.82,7.41,2.44,9.19,6.64,1.3,3.07.47,6.35,0,8.17a20,20,0,0,1-5,8.63c-7,6.64-19.48,4.31-26.19,1.59-9.9-4-14.9-12-16.68-15.3l-22.13,16.69a83.35,83.35,0,0,0,7.15,9.55c4.83,5.55,12.12,14,23.49,18.67,19.27,8,37.63.24,39.32-.51a46.18,46.18,0,0,0,21.45-18.38,47.27,47.27,0,0,0,6.31-23.8c0-4.24-.06-11.09-3.76-18.58-6.67-13.53-20-18.64-22.82-19.74a99.11,99.11,0,0,0-14-3.75c-8.25-1.84-11-1.76-15.86-4.08-4.07-1.94-8.36-4-10.18-8.69a13,13,0,0,1,1-11.23c1.94-3.12,4.78-4.36,7.66-5.62a28,28,0,0,1,13.28-2c3.46.18,7.7.39,12.26,3.06a22.56,22.56,0,0,1,7.62,7.49L278.29,96Z"/><path class="cls-5" d="M334,119.11v-1.36H307.06V258.23H334V227.07c.32.19.81.48,1.43.81,13.23,7.11,27.1,4.94,31.07,4.17A51.78,51.78,0,0,0,384,225c17.84-11.29,23.3-29.93,24.72-35.06A64.16,64.16,0,0,0,410,161.45a62.81,62.81,0,0,0-8.17-21.57A58.7,58.7,0,0,0,385,122.13a50.92,50.92,0,0,0-17.88-7.66,53.53,53.53,0,0,0-8.8-1,51.13,51.13,0,0,0-8.81.51,51.9,51.9,0,0,0-5.88,1.21,36.82,36.82,0,0,0-5,1.66c-1.21.51-2.21,1-2.93,1.4Z"/><path class="cls-6" d="M334,157.59v31c.33.62.82,1.49,1.47,2.48A26.93,26.93,0,0,0,349,201.79a26.09,26.09,0,0,0,17.61-.25c10.23-4,14.11-13.29,15.32-16.22a31.39,31.39,0,0,0-3.7-30.63,25.88,25.88,0,0,0-8.17-8.05,25.06,25.06,0,0,0-13-3.35,26.21,26.21,0,0,0-10.34,2.46,26.39,26.39,0,0,0-11.24,9.83Z"/><rect class="cls-4" x="434.24" y="107.95" width="26.89" height="110.69"/><rect class="cls-7" x="434.24" y="73.89" width="26.89" height="21.29"/><path class="cls-8" d="M691.61,107.78h26.88l-.08,106.81c.08,1.29.16,3.14.08,5.36a59.46,59.46,0,0,1-8.76,28.85,57,57,0,0,1-10.34,12.51,48.31,48.31,0,0,1-12.51,8.43A47.28,47.28,0,0,1,666.71,274v-29.8c.61,0,1.44-.09,2.43-.23a27.4,27.4,0,0,0,8.29-2.55,23.82,23.82,0,0,0,7.92-6A24.62,24.62,0,0,0,690,227a30.46,30.46,0,0,0,1.66-9.7l-.35.19s-.56.3-1.17.59a48.5,48.5,0,0,1-7.31,2.86c-.63.17-1.46.36-3.13.72-2.13.47-3.61.8-5,1a30.85,30.85,0,0,1-6.07.26c-4.82-.15-10.36-.32-16.4-2.3-7.89-2.59-12.85-7-17-10.72a62.16,62.16,0,0,1-12.13-14.81,61,61,0,0,1-6.64-16.34,59.64,59.64,0,0,1-1.63-15.43V108h26.89v55.34l.53,6.36a21.5,21.5,0,0,0,.77,4.09,25.31,25.31,0,0,0,6.61,10.67c2.26,2.38,4.83,5.1,9.22,7A23.82,23.82,0,0,0,670.29,193c12.62-1.14,20.24-12.56,21.32-14.23Z"/><path class="cls-9" d="M320.13,132.57a226.87,226.87,0,0,0-.74,27.22c.1,3.21,5.1,3.23,5,0a226.87,226.87,0,0,1,.74-27.22,2.51,2.51,0,0,0-2.5-2.5,2.55,2.55,0,0,0-2.5,2.5Z"/><path class="cls-10" d="M322.1,130.85c-.07.62-.14,1.24-.22,1.85l.27-2a75,75,0,0,1-3.46,14.46h14.47c-.05-.31-.1-.63-.14-.94l.27,2a34.9,34.9,0,0,1-.12-7.08h-15a54.52,54.52,0,0,1-.49,7.34l.27-2a53.7,53.7,0,0,1-3,11.56l14.74,2c.61-5.95,1.1-11.93,1.88-17.86l-.26,2a37.39,37.39,0,0,1,2.3-9.39l-.75,1.79a20.09,20.09,0,0,1,1.47-2.84c.19-.3,1.21-1.69.39-.63s-.16.24,0,0,.43-.47.65-.7a7.53,7.53,0,0,0-5.3-12.8q-8.24.14-16.46-.47c-4.93-.37-8.45,5.08-7.23,9.49a68.8,68.8,0,0,1,1.76,8.75l-.27-2c.75,5.54,1,11.13,1.31,16.71.17,2.75.35,5.51.65,8.25a54.41,54.41,0,0,0,.69,5.41,8.71,8.71,0,0,0,6,6.35c4,1.21,8.05-1.45,9.22-5.24l5-16-14.74-2L314.74,172a7.54,7.54,0,0,0,7.5,7.5,7.66,7.66,0,0,0,7.5-7.5l1.32-25.17c.2-3.72-3-6.89-6.5-7.36a7.52,7.52,0,0,0-8.23,5.37l-5,16,9.23-5.23-.25-.08,3.31,1.93c.8,1.28,1,1.57.72.89l.76,1.8a7.31,7.31,0,0,1-.19-1l.27,2c-1.71-12.81-.87-25.95-4.33-38.52l-7.23,9.5q8.22.6,16.46.47l-5.3-12.81c-4.6,4.72-6.86,11-7.81,17.39-1,6.9-1.58,13.88-2.29,20.82a7.43,7.43,0,0,0,2.19,5.3,7.76,7.76,0,0,0,4.31,2.07c3.9.52,6.88-1.84,8.23-5.38a59,59,0,0,0,3.74-20.89c0-3.92-3.45-7.68-7.5-7.5-4.35.2-7.13,3.31-7.5,7.5a42.49,42.49,0,0,0,.52,10,6.85,6.85,0,0,0,2.69,3.9,7.16,7.16,0,0,0,4.55,1.61,7.83,7.83,0,0,0,7.23-5.51,83.42,83.42,0,0,0,3.94-18.3,7.48,7.48,0,0,0-2.2-5.3,7.48,7.48,0,0,0-10.6,0,8.62,8.62,0,0,0-2.2,5.3Z"/><path class="cls-9" d="M315.47,142.09q-1.62,12.24-2.84,24.54a6.9,6.9,0,0,0,1.61,4.54,7.13,7.13,0,0,0,3.89,2.69,9,9,0,0,0,4,0,7.4,7.4,0,0,0,4.48-3.45,118.53,118.53,0,0,0,5.44-16l-14.73-2c.66,9.94-2.3,19.68-1.85,29.61a7.51,7.51,0,0,0,14.73,2c1.27-4.51,2.78-9,3.2-13.69.38-4.19-.23-8.59-.45-12.79h-15c.86,12-2.43,23.78-2.64,35.75a7.48,7.48,0,0,0,6.5,7.36c3.83.52,7-1.8,8.23-5.37l2.76-7.89c1.21-3.45,2-7.13.9-10.74a7.52,7.52,0,0,0-14.74,2c-.15,5.35-.36,10.69-.46,16-.07,3.12.36,6.52,2.13,9.18a21,21,0,0,0,2.87,3.45c.36.34.72.68,1.06,1,.2.21.77.93,0-.06s-.09-.08,0,.14l12.95-7.57-6.67-9.61a8,8,0,0,0-4.49-3.45,7.65,7.65,0,0,0-5.77.76c-3.2,2.06-5.09,6.81-2.7,10.26l6.68,9.61a8,8,0,0,0,4.48,3.45,7.5,7.5,0,0,0,8.47-11,19.93,19.93,0,0,0-3.19-3.9c-.4-.39-.78-.8-1.18-1.18-.75-.72.53.52.48.66,0,0-.55-.94-.57-1l.76,1.79a8.55,8.55,0,0,1-.53-1.92l.27,2a59.7,59.7,0,0,1,.07-9l.28-9.71-14.73,2a4.74,4.74,0,0,1,.23.84l-.27-2a8.52,8.52,0,0,1,0,1.75l.27-2a31.3,31.3,0,0,1-1.79,6l-2.13,6.08,14.74,2c.21-12,3.5-23.74,2.64-35.75a8,8,0,0,0-2.2-5.3,7.63,7.63,0,0,0-5.3-2.2c-3.89.18-7.72,3.31-7.5,7.5l.35,6.74a39.13,39.13,0,0,1,0,6.76l.27-2a90.8,90.8,0,0,1-2.85,11l14.73,2c-.45-9.93,2.51-19.67,1.85-29.61a7.51,7.51,0,0,0-14.73-2,114,114,0,0,1-4.32,13.34L314,162c-.12.29-.24.58-.37.86l14,3.79q1.22-12.3,2.84-24.54c.23-1.76-1-4.11-2.2-5.3a7.5,7.5,0,0,0-10.61,0,8.8,8.8,0,0,0-2.19,5.3Z"/><path class="cls-10" d="M391.29,210.28l.28-.37-1.56,2q1.86-2.4,3.93-4.62l-16.72-4.42a5.77,5.77,0,0,1,.15.83l-.36-2.66a8.38,8.38,0,0,1-.05,1.66l.36-2.66a10.88,10.88,0,0,1-.59,2l1-2.39a17.55,17.55,0,0,1-2.22,3.54l1.56-2-.78,1a10,10,0,0,0,4.41,16.71,15.83,15.83,0,0,0,15.78-5.19,36.56,36.56,0,0,0,6.23-11.6c2.26-6.57,2.74-13.8,2.67-20.71l-19.64,2.66a4.26,4.26,0,0,1,.16.79l-.36-2.66a7.63,7.63,0,0,1,0,1.17l.35-2.66a7.53,7.53,0,0,1-.41,1.53l1-2.39a16.28,16.28,0,0,1-2.18,3.56l1.57-2q-2,2.58-4.07,5.14l16.72,9.73a8.36,8.36,0,0,1,.32-.83l-1,2.39c.59-1.29,1.36-2.48,2-3.71a42.92,42.92,0,0,0,2.54-5.72,40.53,40.53,0,0,0,2-8c1-6.46,2.15-13.31,1.63-19.86a10.63,10.63,0,0,0-2.93-7.07,10,10,0,0,0-14.14,0c-1.71,1.86-3.14,4.44-2.93,7.07.41,5.16-.34,10.37-1,15.48l.36-2.66a44.38,44.38,0,0,1-2.53,10.49l1-2.39a32.06,32.06,0,0,1-1.89,3.69,35.76,35.76,0,0,0-2.72,5.77l-.36,2.66a7.5,7.5,0,0,0,.87,3.85,9.58,9.58,0,0,0,4.09,4.79,11.85,11.85,0,0,0,5,1.36c2.21.1,5.66-1.13,7.08-2.93,2.17-2.76,4.51-5.46,6.49-8.35A16.68,16.68,0,0,0,405,178.77a10,10,0,0,0-19.64,2.65,73,73,0,0,1-.54,10.35l.36-2.66a39.36,39.36,0,0,1-2.62,9.89l1-2.39a23.7,23.7,0,0,1-2.82,5l1.57-2a10.18,10.18,0,0,1-1.66,1.62l2-1.56a8.7,8.7,0,0,1-1.37.76l2.39-1a7.17,7.17,0,0,1-1.12.32l2.66-.36a5.6,5.6,0,0,1-1.53,0l2.66.36-.38-.08,4.41,16.71A33.61,33.61,0,0,0,395,209.8a18.53,18.53,0,0,0,1.5-12.21c-1.57-7.29-11.75-9.75-16.72-4.42-2.07,2.23-3.92,4.6-5.77,7-1.47,1.91-1.62,5.5-1,7.7a10.18,10.18,0,0,0,4.6,6,10.08,10.08,0,0,0,7.7,1l2.39-1a10.12,10.12,0,0,0,3.59-3.59Z"/><path class="cls-9" d="M403.76,168.52c-.5-7.71-.93-15.81-3.82-23.06a51,51,0,0,0-2.74-6,39.88,39.88,0,0,0-3.77-5.37,28.79,28.79,0,0,0-8.4-7.13,10.41,10.41,0,0,0-7.71-1,10.18,10.18,0,0,0-6,4.59c-2.5,4.73-1.28,10.94,3.59,13.68a21.15,21.15,0,0,1,2.52,1.67l-2-1.56a23.36,23.36,0,0,1,4,4l-1.57-2a29.66,29.66,0,0,1,3.6,6.31l-1-2.39a45.55,45.55,0,0,1,2.82,11.14l-.36-2.65c.43,3.24.65,6.51.86,9.78a10.65,10.65,0,0,0,2.93,7.07,10,10,0,0,0,14.14,0,9.88,9.88,0,0,0,2.93-7.07Z"/><path class="cls-9" d="M338.6,149.77q1.86-3,4-5.83l-1.56,2,.28-.37a10.07,10.07,0,0,0,2.58-4.41,7.74,7.74,0,0,0,.18-4,9.74,9.74,0,0,0-4.78-7.31,11,11,0,0,0-11.5.27,20.17,20.17,0,0,0-5.32,5.83,21.45,21.45,0,0,0-2.47,5.21,29.45,29.45,0,0,0-.85,5.93l.35-2.66a3.31,3.31,0,0,1-.17.69l1-2.39a2.36,2.36,0,0,1-.33.63c-2.76,4.45-1.1,11.21,3.59,13.68a10.19,10.19,0,0,0,13.68-3.59A80.71,80.71,0,0,0,342.73,143c1.06-2.42,2.1-4.84,3.06-7.29a16.5,16.5,0,0,0,.65-10l-7,12.3.47-.06-2.66.35a24.31,24.31,0,0,1,5.59.05l-2.66-.36a59.13,59.13,0,0,1,9.7,2.53,23.57,23.57,0,0,0,6.82,1.06,40.22,40.22,0,0,1,4.91.05l-2.65-.36a25.27,25.27,0,0,1,5.94,1.73l-2.39-1c1.51.64,3,1.36,4.46,2.1a10.64,10.64,0,0,0,7.7,1,10,10,0,0,0,7-12.3,10,10,0,0,0-4.6-6,54.81,54.81,0,0,0-10.63-4.41,29.23,29.23,0,0,0-6.58-.91,47.89,47.89,0,0,1-4.94,0l2.66.36c-3.17-.55-6.15-1.93-9.3-2.62a46.46,46.46,0,0,0-6.83-1,33.92,33.92,0,0,0-7.31.52c-2.21.31-5,2.69-6,4.59a10.71,10.71,0,0,0-1,7.71,3.38,3.38,0,0,1,.16.84l-.36-2.66a7.83,7.83,0,0,1-.05,1.28l.36-2.66a27.26,27.26,0,0,1-2,5.51l1-2.39A88,88,0,0,1,320,143.39l17.27,10.09c1.59-2.55,1.74-5.31,2-8.2l-.36,2.66a9.53,9.53,0,0,1,.55-2l-1,2.39a20.55,20.55,0,0,1,2.5-4l-1.56,2a3.27,3.27,0,0,1,.47-.51l-2,1.57a1.93,1.93,0,0,1,.57-.37l-2.39,1,.29-.07-2.66.35.28,0L329,147l.26.14-2-15.7a97.15,97.15,0,0,0-5.86,8.22c-2.75,4.46-1.1,11.2,3.59,13.68a10.2,10.2,0,0,0,13.68-3.58Z"/><path class="cls-9" d="M387.89,161.11c5.23,0,10.24-4.6,10-10a10.17,10.17,0,0,0-10-10c-5.23,0-10.24,4.6-10,10a10.18,10.18,0,0,0,10,10Z"/><path class="cls-9" d="M394.71,142.51l-.26-.26a10.31,10.31,0,0,0-14.14,0l-1.56,2a9.94,9.94,0,0,0-1.37,5l.36,2.66a9.94,9.94,0,0,0,2.57,4.42l.26.25a7.37,7.37,0,0,0,3.21,2.07,9.07,9.07,0,0,0,7.71,0,7.45,7.45,0,0,0,3.22-2.07l1.56-2a10,10,0,0,0,1.37-5l-.36-2.66a10,10,0,0,0-2.57-4.41Z"/><path class="cls-9" d="M394.86,142.11l-.48-.78a11.2,11.2,0,0,0-6-4.6,7.74,7.74,0,0,0-4-.18,7.4,7.4,0,0,0-3.71,1.19l-2,1.56a10,10,0,0,0-2.57,4.42l-.36,2.66a9.94,9.94,0,0,0,1.37,5l.49.78a7.48,7.48,0,0,0,2.57,2.81,9,9,0,0,0,7.39,2,7.47,7.47,0,0,0,3.72-1.19l2-1.56a9.94,9.94,0,0,0,2.57-4.42l.36-2.65a10,10,0,0,0-1.37-5Z"/><path class="cls-9" d="M387,135.21l-.38-.13a9.61,9.61,0,0,0-10.51,3.58,7.5,7.5,0,0,0-1.79,3.4l-.36,2.66a10,10,0,0,0,1.36,5.05l1.57,2a10,10,0,0,0,4.41,2.57l.38.13a11.19,11.19,0,0,0,7.71-1,11.18,11.18,0,0,0,4.59-6l.36-2.66a9.94,9.94,0,0,0-1.36-5l-1.57-2a10,10,0,0,0-4.41-2.57Z"/><path class="cls-9" d="M387.2,134.82l-.52-.26a7.39,7.39,0,0,0-3.71-1.18,7.63,7.63,0,0,0-4,.17,11.2,11.2,0,0,0-6,4.6l-1,2.39a10.21,10.21,0,0,0,0,5.32l1,2.38a10,10,0,0,0,3.59,3.59l.51.26a7.46,7.46,0,0,0,3.72,1.18,10.22,10.22,0,0,0,10-4.77l1-2.39a10,10,0,0,0,0-5.32l-1-2.38a10,10,0,0,0-3.58-3.59Z"/><path class="cls-9" d="M385,133.8l-.26-.13a11.19,11.19,0,0,0-7.71-1,11.13,11.13,0,0,0-6,4.6l-1,2.38a10,10,0,0,0,0,5.32l1,2.39a10,10,0,0,0,3.59,3.59l.25.13a10.29,10.29,0,0,0,13.68-3.59l1-2.39a10,10,0,0,0,0-5.32l-1-2.39A10.07,10.07,0,0,0,385,133.8Z"/><path class="cls-9" d="M384.62,137.58v-.38a7.56,7.56,0,0,0-.87-3.86,9,9,0,0,0-5.28-5.28,7.51,7.51,0,0,0-3.85-.86l-2.66.35a10,10,0,0,0-4.41,2.58l-1.57,2a9.94,9.94,0,0,0-1.36,5v.38a11.11,11.11,0,0,0,2.93,7.07,7.37,7.37,0,0,0,3.21,2.07,7.65,7.65,0,0,0,3.86.86l2.65-.36a9.94,9.94,0,0,0,4.42-2.57l1.56-2a10,10,0,0,0,1.37-5Z"/><path class="cls-9" d="M375.51,142.22c5.23,0,10.24-4.6,10-10a10.17,10.17,0,0,0-10-10c-5.23,0-10.24,4.6-10,10a10.17,10.17,0,0,0,10,10Z"/><path class="cls-9" d="M375.51,139.41c5.23,0,10.24-4.6,10-10a10.17,10.17,0,0,0-10-10c-5.23,0-10.24,4.6-10,10a10.17,10.17,0,0,0,10,10Z"/><path class="cls-9" d="M375.51,138.39c5.23,0,10.24-4.6,10-10a10.17,10.17,0,0,0-10-10c-5.23,0-10.24,4.6-10,10a10.17,10.17,0,0,0,10,10Z"/><path class="cls-9" d="M381.22,120.41a15.93,15.93,0,0,0-3.14-2.4,29.63,29.63,0,0,0-3.57-1.58c-.92-.37-1.87-.65-2.79-1l2.39,1a7.64,7.64,0,0,1-1.76-1l2,1.57-.08-.07a7.53,7.53,0,0,0-3.22-2.06,10.29,10.29,0,0,0-10.92,2.06l-1.57,2a9.94,9.94,0,0,0-1.36,5l.35,2.65a10.05,10.05,0,0,0,2.58,4.42,20.43,20.43,0,0,0,3.12,2.27,34.83,34.83,0,0,0,3.5,1.51c.86.33,1.75.6,2.6,1l-2.39-1a7.51,7.51,0,0,1,1.66.93l-2-1.57c.15.13.31.26.45.4A9.68,9.68,0,0,0,378,136.62a7.55,7.55,0,0,0,3.21-2.07l1.57-2a9.9,9.9,0,0,0,1.36-5l-.35-2.66a10,10,0,0,0-2.58-4.41Z"/><path class="cls-9" d="M359.94,139.23a12.9,12.9,0,0,0,8.83-3.66,12.48,12.48,0,0,0,0-17.68,12.49,12.49,0,0,0-17.67,0,12.51,12.51,0,0,0,0,17.68,13,13,0,0,0,8.84,3.66Z"/><path class="cls-9" d="M354.06,139.23a12.91,12.91,0,0,0,8.84-3.66,12.51,12.51,0,0,0,0-17.68,12.51,12.51,0,0,0-17.68,0,12.51,12.51,0,0,0,0,17.68,13,13,0,0,0,8.84,3.66Z"/><path class="cls-10" d="M347.68,140.25a12.88,12.88,0,0,0,8.84-3.66,12.51,12.51,0,0,0,0-17.68,13,13,0,0,0-8.84-3.66,12.88,12.88,0,0,0-8.84,3.66,12.51,12.51,0,0,0,0,17.68,13,13,0,0,0,8.84,3.66Z"/><path class="cls-9" d="M347,142.8a12.88,12.88,0,0,0,8.84-3.66,12.51,12.51,0,0,0,0-17.68,12.51,12.51,0,0,0-17.68,0,12.51,12.51,0,0,0,0,17.68A13,13,0,0,0,347,142.8Z"/><path class="cls-9" d="M345.77,144.46a12.51,12.51,0,0,0,12.5-12.5,12.66,12.66,0,0,0-3.67-8.84,12.49,12.49,0,0,0-17.67,0,12.7,12.7,0,0,0-3.66,8.84,12.57,12.57,0,0,0,3.66,8.84,13,13,0,0,0,8.84,3.66Z"/><path class="cls-9" d="M342.83,145.48a12.9,12.9,0,0,0,8.84-3.66,12.49,12.49,0,0,0,0-17.67,12.48,12.48,0,0,0-17.68,0,12.49,12.49,0,0,0,0,17.67,13,13,0,0,0,8.84,3.66Z"/><path class="cls-10" d="M341.17,147.78a12.9,12.9,0,0,0,8.84-3.66,12.51,12.51,0,0,0,0-17.68,12.51,12.51,0,0,0-17.68,0,12.51,12.51,0,0,0,0,17.68,13,13,0,0,0,8.84,3.66Z"/><path class="cls-10" d="M351,145a12.9,12.9,0,0,0,8.84-3.66,12.51,12.51,0,0,0,0-17.68,12.51,12.51,0,0,0-17.68,0,12.51,12.51,0,0,0,0,17.68A13,13,0,0,0,351,145Z"/><path class="cls-10" d="M369,142.68a12.91,12.91,0,0,0,8.84-3.67,12.49,12.49,0,0,0,0-17.67,12.51,12.51,0,0,0-17.68,0,12.49,12.49,0,0,0,0,17.67,13,13,0,0,0,8.84,3.67Z"/><path class="cls-9" d="M376.53,145.61a12.88,12.88,0,0,0,8.84-3.66,12.51,12.51,0,0,0,0-17.68,12.51,12.51,0,0,0-17.68,0,12.51,12.51,0,0,0,0,17.68,13,13,0,0,0,8.84,3.66Z"/><path class="cls-10" d="M373.2,145.2a15.37,15.37,0,0,1,2,.67l-3-1.26a29.75,29.75,0,0,1,5.65,3.64l-2.53-2a11.69,11.69,0,0,1,1.82,1.69l-2-2.53a66.77,66.77,0,0,1,3.91,6.51c.6,1,1.15,2.08,1.83,3a27.25,27.25,0,0,0,2.74,3.48c.46.47,1,.89,1.38,1.4l-1.95-2.53a8.22,8.22,0,0,1,.72,1.26l-1.26-3a13.12,13.12,0,0,1,.69,2.91l-.45-3.33a46.16,46.16,0,0,0,1.57,9.07,39.72,39.72,0,0,1,1.79,6.77l-.45-3.32c.68,5.35-.13,10.93-.84,16.24l.45-3.33c-.28,2.09-.61,4.18-1,6.25-.6,3.39-.54,6.57,1.26,9.64a12.5,12.5,0,0,0,17.1,4.48c2.59-1.67,5.19-4.31,5.74-7.47a161.5,161.5,0,0,0,2.46-20.44,41.25,41.25,0,0,0-1.11-11.18c-.61-2.62-1.78-5.06-2.17-7.73l.45,3.32c-.35-2.66-.37-5.45-1.23-8a19.32,19.32,0,0,0-2.17-4.76,39.84,39.84,0,0,0-3.76-4.39l2,2.53c-3.13-4.07-4.76-9.1-8.32-12.89a39.21,39.21,0,0,0-6.81-5.32,25.57,25.57,0,0,0-7.89-3.57,13,13,0,0,0-9.63,1.26,12.5,12.5,0,0,0,3,22.84Z"/><path class="cls-10" d="M319.41,209.07a30.49,30.49,0,0,0,11.74,13.6c5.56,3.42,11.94,4.62,18.34,5.15,10.21.85,21.58-.66,30.22-6.53a13.33,13.33,0,0,0,5.75-7.47,12.8,12.8,0,0,0-1.26-9.63,12.6,12.6,0,0,0-7.47-5.74c-3.16-.72-6.86-.62-9.64,1.26a27.44,27.44,0,0,1-4.65,2.51l3-1.26a33.53,33.53,0,0,1-8.31,2.14l3.33-.45a52.46,52.46,0,0,1-13.25-.08l3.32.45a29,29,0,0,1-6.93-1.77l3,1.26a20.3,20.3,0,0,1-4.4-2.54l2.53,2a16.64,16.64,0,0,1-2.74-2.76l1.95,2.53a29.52,29.52,0,0,1-2.91-5.25c-1.25-2.68-4.72-5-7.47-5.74a12.76,12.76,0,0,0-9.63,1.26,12.57,12.57,0,0,0-5.74,7.47l-.45,3.32a12.38,12.38,0,0,0,1.71,6.31Z"/><path class="cls-9" d="M376.66,223.87a12.94,12.94,0,0,0,8.84-3.66,12.51,12.51,0,0,0,0-17.68,12.51,12.51,0,0,0-17.68,0,12.51,12.51,0,0,0,0,17.68,13,13,0,0,0,8.84,3.66Z"/><path class="cls-9" d="M378.57,224.89a12.91,12.91,0,0,0,8.84-3.66,12.51,12.51,0,0,0,0-17.68,12.51,12.51,0,0,0-17.68,0,12.51,12.51,0,0,0,0,17.68,13,13,0,0,0,8.84,3.66Z"/><path class="cls-10" d="M381,223.74a12.9,12.9,0,0,0,8.84-3.66,12.51,12.51,0,0,0,0-17.68,13,13,0,0,0-8.84-3.66,12.88,12.88,0,0,0-8.84,3.66,12.51,12.51,0,0,0,0,17.68,13,13,0,0,0,8.84,3.66Z"/><path class="cls-10" d="M377.41,210.22c-2.33,1.71-4.74,3.5-7.45,4.15a21.35,21.35,0,0,1-4.56.24,23.66,23.66,0,0,0-5.22.69,2.5,2.5,0,0,0,1.33,4.82c3.3-.81,6.75-.11,10.07-1,3.11-.84,5.79-2.71,8.36-4.58a2.56,2.56,0,0,0,.89-3.42,2.51,2.51,0,0,0-3.42-.9Z"/><path class="cls-10" d="M365.54,206.54c-.79.16-1.58.3-2.38.41l3.32-.45a58.7,58.7,0,0,1-13.31.34l3.32.45a13.17,13.17,0,0,1-3.35-.94l3,1.26c-2.09-.91-4.14-1.94-6.2-2.93a13.5,13.5,0,0,0-8-1.48,11.84,11.84,0,0,0-7.17,3.44,14.85,14.85,0,0,0-3.22,5.52,9.48,9.48,0,0,0-.22,5,9.32,9.32,0,0,0,1.48,4.65,45.09,45.09,0,0,0,3.77,4.61,43.78,43.78,0,0,0,4.64,3.73c2.44,1.82,6.84,2,9.63,1.26A12.5,12.5,0,0,0,359.6,216l-1.26-3a12.57,12.57,0,0,0-4.48-4.48l-.35-.26,2.53,2a21,21,0,0,1-3.32-3.27l2,2.53-.26-.34-17.1,17.1c2.06,1,4.11,2,6.19,2.93a27.69,27.69,0,0,0,5.45,2.06,36.12,36.12,0,0,0,6.22.7,78.9,78.9,0,0,0,17-1.31c2.95-.6,6-3.22,7.47-5.75a12.49,12.49,0,0,0-4.49-17.1,13.79,13.79,0,0,0-9.63-1.26Z"/><path class="cls-9" d="M340.91,227.19a12.91,12.91,0,0,0,8.84-3.66,12.7,12.7,0,0,0,3.66-8.84,12.57,12.57,0,0,0-3.66-8.84,12.49,12.49,0,0,0-17.67,0,12.48,12.48,0,0,0,0,17.68,13,13,0,0,0,8.83,3.66Z"/><path class="cls-10" d="M338.36,202.19H338a12.09,12.09,0,0,0-11.43,7.68,9.4,9.4,0,0,0-1.07,4.82l.44,3.32a12.55,12.55,0,0,0,3.22,5.52l2.53,1.95a12.48,12.48,0,0,0,6.31,1.71h.38a9.51,9.51,0,0,0,4.82-1.08,11.19,11.19,0,0,0,6.6-6.61,9.27,9.27,0,0,0,1.08-4.81l-.45-3.33a12.46,12.46,0,0,0-3.21-5.51l-2.53-2a12.37,12.37,0,0,0-6.31-1.7Z"/><path class="cls-9" d="M310.14,185.84a19.85,19.85,0,0,1-.11,4.29l.45-3.32c-.08.58-.19,1.15-.31,1.72a9.48,9.48,0,0,0-.23,5,9.27,9.27,0,0,0,1.49,4.65,14,14,0,0,0,7.47,5.75l3.32.44a12.47,12.47,0,0,0,6.31-1.7l2.53-2a12.44,12.44,0,0,0,3.21-5.52,42.56,42.56,0,0,0,.89-6.25,21.1,21.1,0,0,0,0-3.08,9.51,9.51,0,0,0-1.08-4.82,9.29,9.29,0,0,0-2.58-4,9.49,9.49,0,0,0-4-2.59,9.37,9.37,0,0,0-4.81-1.07l-3.32.44A12.55,12.55,0,0,0,313.8,177l-2,2.53a12.47,12.47,0,0,0-1.7,6.31Z"/><path class="cls-9" d="M320.62,195.14a12.9,12.9,0,0,0,8.84-3.66,12.51,12.51,0,0,0,0-17.68,12.51,12.51,0,0,0-17.68,0,12.7,12.7,0,0,0-3.66,8.84,12.57,12.57,0,0,0,3.66,8.84,13,13,0,0,0,8.84,3.66Z"/><path class="cls-9" d="M332.21,180.22a24.93,24.93,0,0,1,.2-4.05L332,179.5a24.39,24.39,0,0,1,.55-2.83,9.48,9.48,0,0,0,.22-5,9.25,9.25,0,0,0-1.48-4.65,13.92,13.92,0,0,0-7.47-5.74l-3.33-.45a12.37,12.37,0,0,0-6.3,1.71l-2.53,1.95A12.55,12.55,0,0,0,308.4,170a49.9,49.9,0,0,0-1.06,6.66,24.46,24.46,0,0,0-.13,3.53,14,14,0,0,0,3.66,8.84,9.29,9.29,0,0,0,4,2.58,9.51,9.51,0,0,0,4.82,1.08l3.32-.45a12.44,12.44,0,0,0,5.52-3.21l1.95-2.53a12.48,12.48,0,0,0,1.71-6.31Z"/><path class="cls-9" d="M320,173.06a12.94,12.94,0,0,0,8.84-3.66,12.51,12.51,0,0,0,0-17.68,12.51,12.51,0,0,0-17.68,0,12.51,12.51,0,0,0,0,17.68,13,13,0,0,0,8.84,3.66Z"/><path class="cls-10" d="M332.5,157a95,95,0,0,0-.14-15.82,9.38,9.38,0,0,0-1.07-4.82,12.82,12.82,0,0,0-11.43-7.68,12.61,12.61,0,0,0-8.84,3.66c-2.12,2.31-4,5.58-3.66,8.84A95,95,0,0,1,307.5,157a13.95,13.95,0,0,0,3.66,8.83,9.31,9.31,0,0,0,4,2.59,9.51,9.51,0,0,0,4.82,1.08,12.66,12.66,0,0,0,8.84-3.67l2-2.53a12.44,12.44,0,0,0,1.71-6.3Z"/><path class="cls-10" d="M318.57,179.7a12.91,12.91,0,0,0,8.84-3.66,12.7,12.7,0,0,0,3.66-8.84,12.57,12.57,0,0,0-3.66-8.84,12.51,12.51,0,0,0-17.68,0,12.51,12.51,0,0,0,0,17.68,13,13,0,0,0,8.84,3.66Z"/><path class="cls-10" d="M305.91,189c.68,10,1.84,20,3.29,29.88.42,2.88,3.36,6.08,5.75,7.47a12.5,12.5,0,0,0,17.1-4.48l1.26-3a12.68,12.68,0,0,0,0-6.64c-.19-1.31-.38-2.61-.55-3.92l.44,3.32q-1.51-11.28-2.29-22.64a13.29,13.29,0,0,0-3.66-8.84,12.51,12.51,0,0,0-17.68,0c-2.15,2.35-3.88,5.55-3.66,8.84Z"/><path class="cls-10" d="M305.68,207.16a221.44,221.44,0,0,1,1.83,24.68,13,13,0,0,0,3.67,8.84,12.49,12.49,0,0,0,17.67,0,12.84,12.84,0,0,0,3.66-8.84c0-1.59-.14-3.23,0-4.82l-.44,3.33.06-.29-1.26,3,.12-.24L329,235.34l.17-.16-5.52,3.22.24,0L308.51,223,307,228.21a12.9,12.9,0,0,0,1.26,9.63,12.5,12.5,0,0,0,17.1,4.48,13.19,13.19,0,0,0,5.75-7.47l1.51-5.22a12.57,12.57,0,0,0-3.22-12.16,12.49,12.49,0,0,0-12.16-3.21,10.6,10.6,0,0,0-4.48,2.27,12.92,12.92,0,0,0-5.31,10.77c0,1.51,0,3,.06,4.54h25a221.44,221.44,0,0,0-1.83-24.68,13.95,13.95,0,0,0-3.66-8.84,12.51,12.51,0,0,0-17.68,0c-2.07,2.26-4.07,5.64-3.66,8.84Z"/><path class="cls-10" d="M307.63,242.53l0,.12-.45-3.33a19.08,19.08,0,0,1,0,5l.44-3.32c-.06.44-.13.88-.22,1.31a9.42,9.42,0,0,0-.22,5,9.25,9.25,0,0,0,1.48,4.64,14,14,0,0,0,7.47,5.75l3.32.45a12.48,12.48,0,0,0,6.31-1.71l2.53-2a12.52,12.52,0,0,0,3.22-5.51c.32-1.61.5-3.26.7-4.88.06-.54.1-1.08.12-1.63a39.66,39.66,0,0,0-.63-6.52,12,12,0,0,0-10.39-8.95,9.42,9.42,0,0,0-5,.22l-3,1.26a12.52,12.52,0,0,0-4.49,4.48l-1.26,3a12.71,12.71,0,0,0,0,6.65Z"/><path class="cls-9" d="M320.87,258.59a12.88,12.88,0,0,0,8.84-3.66,12.51,12.51,0,0,0,0-17.68,12.51,12.51,0,0,0-17.68,0,12.51,12.51,0,0,0,0,17.68,13,13,0,0,0,8.84,3.66Z"/><path class="cls-10" d="M322.66,253.61A12.9,12.9,0,0,0,331.5,250a12.51,12.51,0,0,0,0-17.68,12.51,12.51,0,0,0-17.68,0,12.51,12.51,0,0,0,0,17.68,13,13,0,0,0,8.84,3.66Z"/><path class="cls-10" d="M322.79,258.34a12.91,12.91,0,0,0,8.84-3.67,12.49,12.49,0,0,0,0-17.67A12.51,12.51,0,0,0,314,237a12.49,12.49,0,0,0,0,17.67,13,13,0,0,0,8.84,3.67Z"/><path class="cls-9" d="M329.42,258.24a5,5,0,1,0-5-5,5,5,0,0,0,5,5Z"/><path class="cls-10" d="M329.94,258.11a5,5,0,1,0-5-5,5.06,5.06,0,0,0,5,5Z"/><path class="cls-10" d="M312.57,258.62a5,5,0,1,0-5-5,5.05,5.05,0,0,0,5,5Z"/><path class="cls-10" d="M330.15,125.54H330l.67.09a.43.43,0,0,1-.16,0l.59.26-.14-.09.5.39a3.35,3.35,0,0,1-.41-.43,3.73,3.73,0,0,0-.92-.76,3.13,3.13,0,0,0-.83-.33,3,3,0,0,0-.89-.09,2.9,2.9,0,0,0-.88.15,3.35,3.35,0,0,0-1.06.57,4.24,4.24,0,0,0-1,1.13,1.59,1.59,0,0,0-.15.29,5.3,5.3,0,0,0-.34.86,4.17,4.17,0,0,0-.12,1.32c0,.51.12,1,.19,1.52l-.09-.66a3.57,3.57,0,0,1,0,1l.09-.67a1.89,1.89,0,0,1-.1.41,1.89,1.89,0,0,0,0,1,1.78,1.78,0,0,0,.29.92,2.54,2.54,0,0,0,1.5,1.15,2.47,2.47,0,0,0,1.92-.25l.51-.39a2.5,2.5,0,0,0,.64-1.1,4.9,4.9,0,0,0,.19-1.07,3,3,0,0,0,0-.52c0-.55-.13-1.09-.21-1.63l.09.66a3.44,3.44,0,0,1,0-.85l-.09.67a1.45,1.45,0,0,1,.12-.42l-.25.59a1.76,1.76,0,0,1,.24-.42l-.39.5a1.9,1.9,0,0,1,.28-.29l-.5.39.2-.12-.59.25a.79.79,0,0,1,.22-.06l-.67.09h.18l-.66-.08a.58.58,0,0,1,.18,0l-.6-.25a.72.72,0,0,1,.21.12l-.5-.39a6.82,6.82,0,0,1,.59.61c.11.11.25.2.37.3a2.63,2.63,0,0,0,.4.28,3,3,0,0,0,.72.29,3.47,3.47,0,0,0,.72.1h.11a1.9,1.9,0,0,0,1-.22,1.82,1.82,0,0,0,.8-.52,2.5,2.5,0,0,0,0-3.53,2.42,2.42,0,0,0-1.77-.73Z"/><path class="cls-10" d="M326.07,154.39a18.06,18.06,0,0,0,12.37-5.12,13.18,13.18,0,0,0,3.62-5.64,13.12,13.12,0,0,0,1.51-6.74c-.21-4.52-1.69-9.22-5.13-12.37a17.49,17.49,0,0,0-24.75,0,13.18,13.18,0,0,0-3.62,5.63,13.22,13.22,0,0,0-1.5,6.74c.2,4.53,1.69,9.22,5.12,12.38a18.22,18.22,0,0,0,12.38,5.12Z"/><path class="cls-10" d="M324.71,159.16A18,18,0,0,0,337.08,154a13.09,13.09,0,0,0,3.62-5.63,13.25,13.25,0,0,0,1.51-6.74c-.21-4.53-1.69-9.22-5.13-12.38a17.52,17.52,0,0,0-24.75,0,13.21,13.21,0,0,0-3.62,5.63,13.18,13.18,0,0,0-1.5,6.75c.2,4.52,1.69,9.22,5.12,12.37a18.21,18.21,0,0,0,12.38,5.13Z"/><path class="cls-10" d="M358.89,140.57l3.41,2a9.25,9.25,0,0,0,4.65,1.48,12.86,12.86,0,0,0,12.45-6l1.26-3a12.51,12.51,0,0,0,0-6.65l-1.26-3a12.52,12.52,0,0,0-4.48-4.49l-3.41-2a9.32,9.32,0,0,0-4.65-1.48,12.84,12.84,0,0,0-12.46,6l-1.26,3a12.71,12.71,0,0,0,0,6.65l1.26,3a12.6,12.6,0,0,0,4.49,4.48Z"/><path class="cls-10" d="M370.32,139.86a12.88,12.88,0,0,0,8.84-3.66,12.51,12.51,0,0,0,0-17.68,12.51,12.51,0,0,0-17.68,0,12.51,12.51,0,0,0,0,17.68,13,13,0,0,0,8.84,3.66Z"/><path class="cls-10" d="M373.39,141.56a12.9,12.9,0,0,0,8.84-3.66,12.51,12.51,0,0,0,0-17.68,12.51,12.51,0,0,0-17.68,0,12.51,12.51,0,0,0,0,17.68,13,13,0,0,0,8.84,3.66Z"/><path class="cls-10" d="M374.31,116.4a8.82,8.82,0,0,1-1.58-.51l3,1.26a9.82,9.82,0,0,1-2.15-1.25,9.27,9.27,0,0,0-4.65-1.49,12.83,12.83,0,0,0-12.45,6l-1.26,3a12.47,12.47,0,0,0,0,6.64l1.26,3a12.49,12.49,0,0,0,4.48,4.48,9.75,9.75,0,0,0,1.8,1.1l.24.11c1,.45,2.1.9,3.16,1.33l.48.19a12.9,12.9,0,0,0,6,.52,9.32,9.32,0,0,0,4.65-1.48,9.51,9.51,0,0,0,3.5-3.22,9.39,9.39,0,0,0,2.24-4.25l.45-3.32a12.48,12.48,0,0,0-1.71-6.31l-1.95-2.53a12.55,12.55,0,0,0-5.52-3.22Z"/><path class="cls-10" d="M366.58,138.84a12.94,12.94,0,0,0,8.84-3.66,12.51,12.51,0,0,0,0-17.68,12.51,12.51,0,0,0-17.68,0,12.51,12.51,0,0,0,0,17.68,13,13,0,0,0,8.84,3.66Z"/><path class="cls-10" d="M362.49,137.14a12.87,12.87,0,0,0,8.84-3.67,12.49,12.49,0,0,0,0-17.67,12.51,12.51,0,0,0-17.68,0,12.49,12.49,0,0,0,0,17.67,13,13,0,0,0,8.84,3.67Z"/><path class="cls-10" d="M359.43,137.14a12.91,12.91,0,0,0,8.84-3.67,12.49,12.49,0,0,0,0-17.67,12.51,12.51,0,0,0-17.68,0,12.49,12.49,0,0,0,0,17.67,13,13,0,0,0,8.84,3.67Z"/><path class="cls-10" d="M352.28,137.82a12.93,12.93,0,0,0,8.84-3.66,12.51,12.51,0,0,0,0-17.68,12.51,12.51,0,0,0-17.68,0,12.51,12.51,0,0,0,0,17.68,13,13,0,0,0,8.84,3.66Z"/><path class="cls-10" d="M349.9,138.84a12.94,12.94,0,0,0,8.84-3.66,12.51,12.51,0,0,0,0-17.68,12.51,12.51,0,0,0-17.68,0,12.51,12.51,0,0,0,0,17.68,13,13,0,0,0,8.84,3.66Z"/><path class="cls-10" d="M340.71,142.58a12.86,12.86,0,0,0,8.83-3.66,12.48,12.48,0,0,0,0-17.68,12.49,12.49,0,0,0-17.67,0,12.7,12.7,0,0,0-3.66,8.84,12.57,12.57,0,0,0,3.66,8.84,13,13,0,0,0,8.84,3.66Z"/><path class="cls-10" d="M337,142.58a12.88,12.88,0,0,0,8.84-3.66,12.51,12.51,0,0,0,0-17.68,12.51,12.51,0,0,0-17.68,0,12.51,12.51,0,0,0,0,17.68,13,13,0,0,0,8.84,3.66Z"/><path class="cls-10" d="M318.92,174.24a12.9,12.9,0,0,0,8.84-3.66,12.51,12.51,0,0,0,0-17.68,12.51,12.51,0,0,0-17.68,0,12.51,12.51,0,0,0,0,17.68,13,13,0,0,0,8.84,3.66Z"/><path class="cls-10" d="M307.44,170.59v15.32a12.88,12.88,0,0,0,3.66,8.84,13.8,13.8,0,0,0,8.84,3.66,12.59,12.59,0,0,0,8.84-3.66,13,13,0,0,0,3.66-8.84V170.59a12.9,12.9,0,0,0-3.66-8.84,9.38,9.38,0,0,0-4-2.58,9.51,9.51,0,0,0-4.82-1.08,12.67,12.67,0,0,0-8.84,3.66,13,13,0,0,0-3.66,8.84Z"/><path class="cls-10" d="M322,174.58a12.88,12.88,0,0,0,8.84-3.66,12.51,12.51,0,0,0,0-17.68,12.51,12.51,0,0,0-17.68,0,12.51,12.51,0,0,0,0,17.68,13,13,0,0,0,8.84,3.66Z"/><path class="cls-10" d="M325.05,163a12.94,12.94,0,0,0,8.84-3.66,12.51,12.51,0,0,0,0-17.68,12.51,12.51,0,0,0-17.68,0,12.51,12.51,0,0,0,0,17.68,13,13,0,0,0,8.84,3.66Z"/><path class="cls-10" d="M321.3,183.09a12.88,12.88,0,0,0,8.84-3.66,12.51,12.51,0,0,0,0-17.68,12.51,12.51,0,0,0-17.68,0,12.51,12.51,0,0,0,0,17.68,13,13,0,0,0,8.84,3.66Z"/><path class="cls-10" d="M322,190.92a12.88,12.88,0,0,0,8.84-3.66,12.51,12.51,0,0,0,0-17.68,12.51,12.51,0,0,0-17.68,0,12.51,12.51,0,0,0,0,17.68,13,13,0,0,0,8.84,3.66Z"/><path class="cls-10" d="M322.66,200.46a12.87,12.87,0,0,0,8.84-3.67,12.49,12.49,0,0,0,0-17.67,12.51,12.51,0,0,0-17.68,0,12.49,12.49,0,0,0,0,17.67,13,13,0,0,0,8.84,3.67Z"/><path class="cls-10" d="M323.68,212a12.86,12.86,0,0,0,8.84-3.66,12.51,12.51,0,0,0,0-17.68,13,13,0,0,0-8.84-3.66,12.51,12.51,0,0,0-12.5,12.5,12.64,12.64,0,0,0,3.67,8.84,13,13,0,0,0,8.83,3.66Z"/><path class="cls-10" d="M323.34,205.56a12.86,12.86,0,0,0,8.84-3.66,12.51,12.51,0,0,0,0-17.68,12.49,12.49,0,0,0-17.67,0,12.48,12.48,0,0,0,0,17.68,13,13,0,0,0,8.83,3.66Z"/><path class="cls-10" d="M322.32,197.73a12.88,12.88,0,0,0,8.84-3.66,12.51,12.51,0,0,0,0-17.68,12.51,12.51,0,0,0-17.68,0,12.51,12.51,0,0,0,0,17.68,13,13,0,0,0,8.84,3.66Z"/><path class="cls-10" d="M374.41,147.35a12.94,12.94,0,0,0,8.84-3.66,12.51,12.51,0,0,0,0-17.68,12.51,12.51,0,0,0-17.68,0,12.51,12.51,0,0,0,0,17.68,13,13,0,0,0,8.84,3.66Z"/><path class="cls-10" d="M376.45,149.73a12.88,12.88,0,0,0,8.84-3.66,12.51,12.51,0,0,0,0-17.68,12.51,12.51,0,0,0-17.68,0,12.51,12.51,0,0,0,0,17.68,13,13,0,0,0,8.84,3.66Z"/><path class="cls-10" d="M361.81,143.6a12.88,12.88,0,0,0,8.84-3.66,12.49,12.49,0,0,0,0-17.67,12.48,12.48,0,0,0-17.68,0,12.49,12.49,0,0,0,0,17.67,13,13,0,0,0,8.84,3.66Z"/><path class="cls-10" d="M390.07,162.67a12.94,12.94,0,0,0,8.84-3.66,12.51,12.51,0,0,0,0-17.68,12.51,12.51,0,0,0-17.68,0,12.51,12.51,0,0,0,0,17.68,13,13,0,0,0,8.84,3.66Z"/><path class="cls-10" d="M385,156.88a12.88,12.88,0,0,0,8.84-3.66,12.51,12.51,0,0,0,0-17.68,12.51,12.51,0,0,0-17.68,0,12.51,12.51,0,0,0,0,17.68,13,13,0,0,0,8.84,3.66Z"/><path class="cls-10" d="M382.58,155.86a12.9,12.9,0,0,0,8.84-3.66,12.51,12.51,0,0,0,0-17.68,13,13,0,0,0-8.84-3.66,12.88,12.88,0,0,0-8.84,3.66,12.51,12.51,0,0,0,0,17.68,13,13,0,0,0,8.84,3.66Z"/><path class="cls-10" d="M395.51,179.35a12.91,12.91,0,0,0,8.84-3.66,12.51,12.51,0,0,0,0-17.68,12.49,12.49,0,0,0-17.67,0,12.48,12.48,0,0,0,0,17.68,13,13,0,0,0,8.83,3.66Z"/><path class="cls-10" d="M394.15,172.88a12.88,12.88,0,0,0,8.84-3.66,12.51,12.51,0,0,0,0-17.68,12.51,12.51,0,0,0-17.68,0,12.51,12.51,0,0,0,0,17.68,13,13,0,0,0,8.84,3.66Z"/><path class="cls-10" d="M378.49,222.92a12.86,12.86,0,0,0,8.84-3.66,12.51,12.51,0,0,0,0-17.68,12.51,12.51,0,0,0-17.68,0,12.51,12.51,0,0,0,0,17.68,13,13,0,0,0,8.84,3.66Z"/><path class="cls-10" d="M378.15,222.92a12.88,12.88,0,0,0,8.84-3.66,12.51,12.51,0,0,0,0-17.68,12.51,12.51,0,0,0-17.68,0,12.51,12.51,0,0,0,0,17.68,13,13,0,0,0,8.84,3.66Z"/><path class="cls-10" d="M373.73,223.6a12.9,12.9,0,0,0,8.84-3.66,12.49,12.49,0,0,0,0-17.67,12.48,12.48,0,0,0-17.68,0,12.49,12.49,0,0,0,0,17.67,13,13,0,0,0,8.84,3.66Z"/><path class="cls-10" d="M378.15,226.67A12.93,12.93,0,0,0,387,223a12.51,12.51,0,0,0,0-17.68,12.51,12.51,0,0,0-17.68,0,12.51,12.51,0,0,0,0,17.68,13,13,0,0,0,8.84,3.66Z"/><path class="cls-10" d="M350.34,208.06l-.26.12,3-1.26-.26.05,3.32-.44h-.26l3.33.44a1.87,1.87,0,0,1-.53-.13l3,1.26a10.64,10.64,0,0,1-1.45-.86,20,20,0,0,0-4.24-2c-1.09-.41-2.22-.68-3.3-1.13l3,1.26a47,47,0,0,1-6.2-3.64,27.61,27.61,0,0,0-9.17-4,13.38,13.38,0,0,0-9.63,1.26,12.5,12.5,0,0,0-4.49,17.11c1.69,2.62,4.3,5.12,7.47,5.74a13.51,13.51,0,0,1,2.54.77l-3-1.26a47.74,47.74,0,0,1,6.44,3.77,26.6,26.6,0,0,0,3.14,1.73c2.22,1,4.34,1.66,6.57,2.5l-3-1.26c.92.4,1.68,1.06,2.57,1.5a14,14,0,0,0,14.05,0,14,14,0,0,0,5.75-7.48,12.8,12.8,0,0,0-1.26-9.63A12.57,12.57,0,0,0,360,206.8l-3.32-.45a12.48,12.48,0,0,0-6.31,1.71Z"/><path class="cls-10" d="M344.45,227.69a12.93,12.93,0,0,0,8.84-3.66,12.51,12.51,0,0,0,0-17.68,12.51,12.51,0,0,0-17.68,0,12.51,12.51,0,0,0,0,17.68,13,13,0,0,0,8.84,3.66Z"/><path class="cls-10" d="M323,199.09a12.86,12.86,0,0,0,8.84-3.66,12.51,12.51,0,0,0,0-17.68,12.51,12.51,0,0,0-17.68,0,12.51,12.51,0,0,0,0,17.68,13,13,0,0,0,8.84,3.66Z"/><path class="cls-10" d="M318.92,193a12.91,12.91,0,0,0,8.84-3.67,12.49,12.49,0,0,0,0-17.67,12.51,12.51,0,0,0-17.68,0,12.49,12.49,0,0,0,0,17.67,13,13,0,0,0,8.84,3.67Z"/><path class="cls-10" d="M320.62,258.33a12.93,12.93,0,0,0,8.84-3.66,12.51,12.51,0,0,0,0-17.68,12.51,12.51,0,0,0-17.68,0,12.51,12.51,0,0,0,0,17.68,13,13,0,0,0,8.84,3.66Z"/><path class="cls-10" d="M322.32,258.33a12.93,12.93,0,0,0,8.84-3.66,12.7,12.7,0,0,0,3.66-8.84,12.57,12.57,0,0,0-3.66-8.84,12.51,12.51,0,0,0-17.68,0,12.51,12.51,0,0,0,0,17.68,13,13,0,0,0,8.84,3.66Z"/><path class="cls-10" d="M331.6,249.8a24.46,24.46,0,0,0-3.07-1.21,18.66,18.66,0,0,0-2.76-.53,16.65,16.65,0,0,0-2.73-.21,22.81,22.81,0,0,0-3.4.37,3.77,3.77,0,0,0-1.7.89,3.89,3.89,0,0,0-1.29,1.41,5.12,5.12,0,0,0-.5,3.85,5,5,0,0,0,2.3,3l1.19.5a5,5,0,0,0,2.66,0l.43-.06-1.33.17a14.32,14.32,0,0,1,3.7,0l-1.32-.18a14.21,14.21,0,0,1,3.57,1l-1.19-.51.39.18a5.62,5.62,0,0,0,3.85.5,5,5,0,0,0,3.5-6.15,4.92,4.92,0,0,0-2.3-3Z"/><path class="cls-10" d="M321.3,257.3a5,5,0,1,0-5-5,5.05,5.05,0,0,0,5,5Z"/><path class="cls-10" d="M319.6,258a5,5,0,1,0-5-5,5.06,5.06,0,0,0,5,5Z"/><path class="cls-10" d="M320.62,259a5,5,0,1,0-5-5,5.05,5.05,0,0,0,5,5Z"/><path class="cls-10" d="M318.24,258.66a5,5,0,1,0-5-5,5.06,5.06,0,0,0,5,5Z"/><path class="cls-11" d="M561.05,79.43V110.6c-.71-.39-1.69-.9-2.89-1.45a49.92,49.92,0,0,0-9.67-3.16,51.56,51.56,0,0,0-16-.75,50.58,50.58,0,0,0-20.51,7A52.36,52.36,0,0,0,501.33,121a63.15,63.15,0,0,0-8.69,11.41,51.81,51.81,0,0,0-7.31,20.08,76,76,0,0,0-.86,18.22,58.93,58.93,0,0,0,19,39.57,51.53,51.53,0,0,0,15,10,49.78,49.78,0,0,0,27.07,3.4,50.43,50.43,0,0,0,15.55-5.06v1.36h26.89V79.43Z"/><path class="cls-12" d="M561.05,149.08v31.48l-.58.76a64,64,0,0,1-6,6.9,25.4,25.4,0,0,1-10.47,5.53,25.83,25.83,0,0,1-14.81-.94,27.11,27.11,0,0,1-13.45-11.23,30,30,0,0,1-4.42-13.36,32.88,32.88,0,0,1,1.7-14.56,31.91,31.91,0,0,1,8-12.08,23.25,23.25,0,0,1,8.09-5.36,23.79,23.79,0,0,1,8.84-1.44,23.81,23.81,0,0,1,15.07,5.1,38.65,38.65,0,0,1,5,4.93c.79.89,1.43,1.66,1.87,2.22Z"/><path class="cls-10" d="M571.88,130.29c3.22,0,3.22-5,0-5s-3.22,5,0,5Z"/><path class="cls-10" d="M568,117.73c.13.63.24,1.26.32,1.89l-.09-.66a26.49,26.49,0,0,1,.13,5.77,2.52,2.52,0,0,0,.73,1.76,2.58,2.58,0,0,0,1.77.74,2.54,2.54,0,0,0,1.77-.74,2.79,2.79,0,0,0,.73-1.76,29.1,29.1,0,0,0-.54-8.33,2.51,2.51,0,0,0-3.07-1.75,2.57,2.57,0,0,0-1.75,3.08Z"/><path class="cls-10" d="M570.35,136.21a12.94,12.94,0,0,0,8.84-3.66,12.51,12.51,0,0,0,0-17.68,12.51,12.51,0,0,0-17.68,0,12.51,12.51,0,0,0,0,17.68,13,13,0,0,0,8.84,3.66Z"/><path class="cls-10" d="M585.21,124.56q1.17-15.37,1.1-30.81a13,13,0,0,0-3.66-8.84,12.51,12.51,0,0,0-17.68,0,12.93,12.93,0,0,0-3.66,8.84q.06,15.42-1.1,30.81c-.23,3,1.56,6.73,3.66,8.84a12.51,12.51,0,0,0,17.68,0,13.87,13.87,0,0,0,3.66-8.84Z"/><path class="cls-10" d="M573.58,104.21a12.93,12.93,0,0,0,8.84-3.66,12.51,12.51,0,0,0,0-17.68,12.51,12.51,0,0,0-17.68,0,12.51,12.51,0,0,0,0,17.68,13,13,0,0,0,8.84,3.66Z"/><path class="cls-10" d="M575.11,106.76A12.88,12.88,0,0,0,584,103.1a12.51,12.51,0,0,0,0-17.68,12.51,12.51,0,0,0-17.68,0,12.51,12.51,0,0,0,0,17.68,13,13,0,0,0,8.84,3.66Z"/><path class="cls-10" d="M575.62,107.61a12.86,12.86,0,0,0,8.84-3.66,12.51,12.51,0,0,0,0-17.68,12.51,12.51,0,0,0-17.68,0,12.51,12.51,0,0,0,0,17.68,13,13,0,0,0,8.84,3.66Z"/><path class="cls-10" d="M575.79,109.31a12.86,12.86,0,0,0,8.84-3.66,12.51,12.51,0,0,0,0-17.68A12.51,12.51,0,0,0,567,88a12.51,12.51,0,0,0,0,17.68,13,13,0,0,0,8.84,3.66Z"/><path class="cls-10" d="M583.11,109.64a5,5,0,1,0-5-5,5.05,5.05,0,0,0,5,5Z"/><path class="cls-10" d="M583.11,112.2a5,5,0,1,0-5-5,5.05,5.05,0,0,0,5,5Z"/><path class="cls-10" d="M583.11,117a5,5,0,1,0-5-5,5.05,5.05,0,0,0,5,5Z"/><path class="cls-10" d="M583.11,118.32a5,5,0,1,0-5-5,5.05,5.05,0,0,0,5,5Z"/><path class="cls-10" d="M583.11,121.05a5,5,0,1,0-5-5,5.05,5.05,0,0,0,5,5Z"/><path class="cls-10" d="M583.28,123.26a5,5,0,1,0-5-5,5.05,5.05,0,0,0,5,5Z"/><path class="cls-10" d="M583.28,126a5,5,0,1,0-5-5,5.05,5.05,0,0,0,5,5Z"/><path class="cls-10" d="M583.28,129.05a5,5,0,1,0-5-5,5.05,5.05,0,0,0,5,5Z"/><path class="cls-10" d="M583.11,133.3a5,5,0,1,0-5-5,5.05,5.05,0,0,0,5,5Z"/><path class="cls-10" d="M583.11,134.66a5,5,0,1,0-5-5,5.05,5.05,0,0,0,5,5Z"/><path class="cls-10" d="M588.31,90.51l-.48-5.43a3.68,3.68,0,0,0-.43-1.93,3.75,3.75,0,0,0-1-1.61,3.69,3.69,0,0,0-1.61-1,3.77,3.77,0,0,0-1.93-.43l-1.33.18a4.91,4.91,0,0,0-2.2,1.28l-.78,1a5,5,0,0,0-.69,2.53l.48,5.43a3.88,3.88,0,0,0,.43,1.93,4.5,4.5,0,0,0,2.65,2.64,3.62,3.62,0,0,0,1.92.43l1.33-.18a4.94,4.94,0,0,0,2.21-1.28l.78-1a5,5,0,0,0,.68-2.53Z"/><path class="cls-10" d="M585.67,84.33c3.21,0,3.22-5,0-5s-3.23,5,0,5Z"/><path class="cls-10" d="M581.92,80,580.19,80l1.26,4.66.11,0-.6.25a3.82,3.82,0,0,1,.94-.24l-.67.09a3.94,3.94,0,0,1,1,0l-.67-.09.36.07.66-4.91-6.92-.44a2.51,2.51,0,0,0-2.5,2.5,2.55,2.55,0,0,0,2.5,2.5l6.92.44a2.51,2.51,0,0,0,1.77-.73,2.63,2.63,0,0,0,.69-1.44,2.48,2.48,0,0,0-1.79-2.74,6.29,6.29,0,0,0-1.93-.17,7.58,7.58,0,0,0-2.37.64l-.5.39a1.82,1.82,0,0,0-.52.8,2.35,2.35,0,0,0-.12,1.63A2.59,2.59,0,0,0,580.19,85l1.73.09a2.51,2.51,0,0,0,2.5-2.5,2.55,2.55,0,0,0-2.5-2.5Z"/><path class="cls-10" d="M567.79,85.36c3.22,0,3.23-5,0-5s-3.22,5,0,5Z"/><path class="cls-10" d="M568.48,79.42a40.69,40.69,0,0,0-4.94-.07,2.66,2.66,0,0,0-1.77.73,2.57,2.57,0,0,0-.73,1.77,2.49,2.49,0,0,0,2.5,2.5,40.69,40.69,0,0,1,4.94.07,2.49,2.49,0,0,0,2.5-2.5,2.57,2.57,0,0,0-.73-1.77,2.81,2.81,0,0,0-1.77-.73Z"/><path class="cls-10" d="M563,84.33c3.21,0,3.22-5,0-5s-3.22,5,0,5Z"/><path class="cls-10" d="M561.54,84.36a11,11,0,0,1,.21,1.12l-.09-.66a11,11,0,0,1,.06,2.29l.09-.67,0,.13L562,86a1.19,1.19,0,0,1-.09.15l.39-.5-.06.06.51-.39-.07,0,.6-.25h0l.66-.09h0l.67.09h0l.6.25,0,0,.51.39,0,0a2.83,2.83,0,0,0-1.77-.73,2.49,2.49,0,0,0-2.5,2.5l.09.67a2.5,2.5,0,0,0,.64,1.1,2.62,2.62,0,0,0,1.18.69,2.56,2.56,0,0,0,1.4,0,6.74,6.74,0,0,0,.64-.28,3.9,3.9,0,0,0,.56-.42,5.56,5.56,0,0,0,.42-.54l.06-.1a4.47,4.47,0,0,0,.44-2.31,13.46,13.46,0,0,0-.4-3.22,2.49,2.49,0,0,0-1.15-1.49,1.71,1.71,0,0,0-.93-.3,1.85,1.85,0,0,0-1,0,2.55,2.55,0,0,0-1.5,1.15,2.69,2.69,0,0,0-.25,1.93Z"/><path class="cls-10" d="M563.54,88.93c3.22,0,3.22-5,0-5s-3.22,5,0,5Z"/><path class="cls-10" d="M565.38,121.67a29.58,29.58,0,0,1-.12,6.78l.36-2.66c-.36,2.48-1.1,4.87-1.66,7.31a47.24,47.24,0,0,0-.9,5.8,25.29,25.29,0,0,0,.43,6c.32,2.3,2.69,4.86,4.59,6a10,10,0,0,0,13.69-3.58l1-2.39a10,10,0,0,0,0-5.32l0-.37.36,2.66a16,16,0,0,1,.07-3.72l-.36,2.66c.41-2.76,1.31-5.41,1.85-8.14a38.08,38.08,0,0,0,.74-11,10.81,10.81,0,0,0-2.92-7.07,10,10,0,0,0-14.15,0c-1.69,1.85-3.18,4.47-2.93,7.07Z"/><path class="cls-10" d="M563.73,129q.25,2.94.32,5.9a2.61,2.61,0,0,0,.73,1.77,2.51,2.51,0,0,0,3.54,0,2.84,2.84,0,0,0,.73-1.77c0-.17,0-.33.05-.5L569,135a10.47,10.47,0,0,1,.65-2.41l-.25.6a9.88,9.88,0,0,1,1.25-2.16l-.39.5.12-.15a2.72,2.72,0,0,0,.74-1.77,2.56,2.56,0,0,0-.74-1.77,2.48,2.48,0,0,0-1.76-.73,2.41,2.41,0,0,0-1.77.73,13.93,13.93,0,0,0-1.19,1.66,15.6,15.6,0,0,0-.87,1.85,12.23,12.23,0,0,0-.75,3.48h5q-.06-3-.32-5.9a2.73,2.73,0,0,0-.73-1.77,2.57,2.57,0,0,0-1.77-.73,2.53,2.53,0,0,0-1.77.73,2.44,2.44,0,0,0-.73,1.77Z"/><path class="cls-10" d="M580.06,133.05a3.07,3.07,0,0,1,.34.38l-.39-.51a4,4,0,0,1,.47.8l-.25-.6a5.63,5.63,0,0,1,.32,1.27l-.09-.66a13.14,13.14,0,0,1,0,2.66,2.48,2.48,0,0,0,.73,1.77,2.5,2.5,0,0,0,3.53,0l.4-.51a2.53,2.53,0,0,0,.34-1.26c.14-1.17.28-2.34.44-3.51l-.09.66a1.32,1.32,0,0,1,.08-.33l-.25.6a.7.7,0,0,1,.09-.17l-.39.51,0-.05-.51.39.11-.07-.6.25.12,0-.67.09H584l-.67-.09a.35.35,0,0,1,.11,0l-.6-.25.16.1-.51-.39a1,1,0,0,1,.15.14l-.39-.51a1.79,1.79,0,0,1,.22.38l-.25-.6a5.08,5.08,0,0,1,.2.94l-.09-.66a8.93,8.93,0,0,1,0,2.31,2.5,2.5,0,0,0,4.27,1.77l.39-.51a2.43,2.43,0,0,0,.34-1.26,10.88,10.88,0,0,0-.14-3.27,3.52,3.52,0,0,0-3.25-3.14,3,3,0,0,0-2.83,2.16,8.51,8.51,0,0,0-.27,1.75l-.34,2.76h5c.21-2.41,0-5.11-1.86-6.87a2.59,2.59,0,0,0-1.77-.73,2.52,2.52,0,0,0-1.76.73,2.47,2.47,0,0,0,0,3.53Z"/><path class="cls-10" d="M554.11,121.46c.36.77.72,1.55,1.06,2.34.16.35.32.71.47,1.07-.39-.92.19.48.21.53q1,2.38,1.79,4.82a98.73,98.73,0,0,1,2.81,9.89l7.34-5.65a5.53,5.53,0,0,1-1-.57c.46.37.56.44.28.2s-.28-.24-.42-.38c-.45-.43-.87-.91-1.28-1.38a31.64,31.64,0,0,0-3-3.26,48.23,48.23,0,0,0-4.15-3.11l-.8-.57c-1-.74.74.68-.21-.17-.29-.25-.58-.5-.85-.78s-.94-1.1-.22-.16l-7.86,6.06c2.91,2.42,5.76,4.93,8.51,7.52,1.31,1.23,2.65,2.44,3.85,3.77.18.21.84,1.18.23.24.18.28.36.55.52.83a5.12,5.12,0,0,1,.27.52q-.35-.83-.18-.3c.09.37.09.24,0-.4a5,5,0,0,1,0,.77l8.54-3.54-18.33-15.36-3.54,8.53a36.18,36.18,0,0,0,7.93-1.64,21.14,21.14,0,0,0,7.57-4c2.31-2.14,3.21-5,3.58-8.06a17.18,17.18,0,0,0,.18-3,6.43,6.43,0,0,0-3.22-5.2c-5.4-3.21-11.31-.36-15.4,3.51-3.53,3.34-7.1,6.94-9.43,11.25a5,5,0,1,0,8.63,5c.49-.89,1-1.73,1.6-2.57.79-1.16-.62.72.27-.36.28-.34.55-.67.84-1,1.29-1.48,2.68-2.87,4.08-4.24.67-.65,1.34-1.29,2-1.92,1-.89-.77.44.34-.27.42-.27.85-.5,1.28-.75s.25-.13-.3.13q.36-.12.72-.21c1-.31-.93,0,.17,0s-.88-.2.14,0q.78.26-.18-.09c-.49-.47-.56-.51-.21-.11l-1.29-2.21c0-.75,0-.92,0-.53l0,.56c0,.34,0,.67-.07,1-.08,1,.19.28,0,.06a4.43,4.43,0,0,1-.26,1.15c-.27,1.27.19-1-.06.24l-.2.34c.37-.44.44-.51.19-.24s-.63.52-.07.15c-.35.23-.69.44-1.06.64s-.62.32-.94.46-.93.39-.26.13c-.84.33-1.69.63-2.56.89-.72.21-1.45.4-2.18.56l-1.33.25c-1.1.2.75-.07-.47.06a5.15,5.15,0,0,0-4.57,3.08,4.94,4.94,0,0,0,1,5.46L563,146.82a5,5,0,0,0,8.54-3.53c.26-4.87-3.32-8.42-6.57-11.52q-4.62-4.41-9.54-8.5a5.07,5.07,0,0,0-6.56-.39c-1.78,1.38-2.79,4.46-1.29,6.45a21.48,21.48,0,0,0,4.56,4.47c.63.46,1.27.9,1.92,1.35.32.23.63.46,1,.68.81.57-.61-.53.36.31,2.59,2.28,4.21,5.3,7.38,7a5.06,5.06,0,0,0,7.34-5.64,104.59,104.59,0,0,0-7.35-21c-1.11-2.37-4.71-3.16-6.84-1.79a5.13,5.13,0,0,0-1.79,6.84Z"/><path class="cls-9" d="M544.36,133.4c1,.34,2,.73,3,1.14a5.62,5.62,0,0,0,3.85-.5,3.86,3.86,0,0,0,1.4-1.29,3.74,3.74,0,0,0,.9-1.7l.18-1.33a5,5,0,0,0-.69-2.52l-.78-1a5,5,0,0,0-2.2-1.28c-1-.42-2-.8-3-1.14a3.78,3.78,0,0,0-2-.09,5.12,5.12,0,0,0-4.15,3.58l-.18,1.33a5,5,0,0,0,.68,2.52l.78,1a5.05,5.05,0,0,0,2.21,1.29Z"/><path class="cls-9" d="M546.86,108.65H546a9.51,9.51,0,0,0-4.82,1.08,9.38,9.38,0,0,0-4,2.58,9.49,9.49,0,0,0-2.59,4,9.37,9.37,0,0,0-1.07,4.81l.44,3.33a12.57,12.57,0,0,0,3.22,5.51l2.53,2a12.37,12.37,0,0,0,6.31,1.7h.85a9.37,9.37,0,0,0,4.81-1.07,9.49,9.49,0,0,0,4-2.59,9.29,9.29,0,0,0,2.58-4,9.51,9.51,0,0,0,1.08-4.82l-.45-3.32a12.44,12.44,0,0,0-3.21-5.52l-2.53-2a12.5,12.5,0,0,0-6.31-1.71Z"/><path class="cls-9" d="M547.2,132.63A12.9,12.9,0,0,0,556,129a12.51,12.51,0,0,0,0-17.68,12.51,12.51,0,0,0-17.68,0,12.7,12.7,0,0,0-3.66,8.84,12.57,12.57,0,0,0,3.66,8.84,13,13,0,0,0,8.84,3.66Z"/><path class="cls-10" d="M548.56,131.27a12.9,12.9,0,0,0,8.84-3.66,12.51,12.51,0,0,0,0-17.68,13,13,0,0,0-8.84-3.66,12.88,12.88,0,0,0-8.84,3.66,12.51,12.51,0,0,0,0,17.68,13,13,0,0,0,8.84,3.66Z"/><path class="cls-9" d="M543.45,131.44a12.86,12.86,0,0,0,8.84-3.66,12.51,12.51,0,0,0,0-17.68,12.51,12.51,0,0,0-17.68,0,12.51,12.51,0,0,0,0,17.68,13,13,0,0,0,8.84,3.66Z"/><path class="cls-10" d="M547.93,112.92a33.44,33.44,0,0,0-4.52-1.84,28.74,28.74,0,0,0-5.14-.77,19.82,19.82,0,0,0-7.17.86,12.65,12.65,0,0,0-6.49,4.48,11.94,11.94,0,0,0-2.69,7.57,14.79,14.79,0,0,0,1.71,6.31,14,14,0,0,0,7.47,5.75,12,12,0,0,0,6.4.39,14,14,0,0,0,6-2.12,19,19,0,0,0,3.64-3,16.12,16.12,0,0,1,1.59-1.61l-2.53,2a6.31,6.31,0,0,1,1.17-.64l-3,1.26a22.46,22.46,0,0,0,5.57-2.88,13.94,13.94,0,0,0,5-7.35,12.17,12.17,0,0,0-2.24-10.9,9.51,9.51,0,0,0-3.5-3.22,12.4,12.4,0,0,0-6.31-1.7,38.89,38.89,0,0,0-25,6.26l12.61,21.59a54.92,54.92,0,0,1,8.35-4.72L526.31,107a73.66,73.66,0,0,0-22.4,17.41,13.26,13.26,0,0,0-3.66,8.84,12.71,12.71,0,0,0,3.66,8.84,12.56,12.56,0,0,0,8.84,3.66c3.17-.14,6.68-1.17,8.84-3.66a65.69,65.69,0,0,1,9.16-8.72l-2.53,2a65.08,65.08,0,0,1,10.71-6.73,12.51,12.51,0,0,0-3-22.85l-3.32-.45a12.48,12.48,0,0,0-6.31,1.71,55.69,55.69,0,0,0-8.34,4.72,13.36,13.36,0,0,0-5.75,7.47,12.8,12.8,0,0,0,1.26,9.63,12.63,12.63,0,0,0,7.47,5.75c3.16.71,6.86.62,9.63-1.26a28.32,28.32,0,0,1,4.77-2.61l-3,1.26a29.16,29.16,0,0,1,6.85-1.9l-3.33.45a28.12,28.12,0,0,1,7.1-.05l-12.06-15.83-.07.26,1.26-3-.13.23,2-2.53a2.16,2.16,0,0,1-.37.37l2.53-2a5.57,5.57,0,0,1-.76.41l3-1.26c-3.07,1.3-4.84,2-7.38,4.21-.81.71-1.45,1.57-2.25,2.29l2.53-2a6.29,6.29,0,0,1-1,.63l3-1.26a3,3,0,0,1-.72.24l3.33-.44a2.49,2.49,0,0,1-.72,0l3.32.44a1.85,1.85,0,0,1-.69-.21v24.11a12.38,12.38,0,0,1,1.6-.37l-3.33.45a11.49,11.49,0,0,1,2.87,0l-3.33-.45a11.36,11.36,0,0,1,2.36.67l-3-1.26.37.16a13.92,13.92,0,0,0,9.63,1.26,12.49,12.49,0,0,0,8.74-15.37c-.95-2.91-2.84-6.16-5.75-7.47Z"/><path class="cls-9" d="M524,133.91a12.94,12.94,0,0,0,8.84-3.66,12.51,12.51,0,0,0,0-17.68,13,13,0,0,0-8.84-3.66,12.86,12.86,0,0,0-8.84,3.66,12.51,12.51,0,0,0,0,17.68,13,13,0,0,0,8.84,3.66Z"/><path class="cls-9" d="M526.81,132.5a12.86,12.86,0,0,0,8.84-3.66,12.49,12.49,0,0,0,0-17.67,12.47,12.47,0,0,0-17.67,0,12.47,12.47,0,0,0,0,17.67,13,13,0,0,0,8.83,3.66Z"/><path class="cls-9" d="M523,107.94a49,49,0,0,0-27.21,21,12.49,12.49,0,0,0,4.49,17.1,12.63,12.63,0,0,0,9.63,1.26,13.38,13.38,0,0,0,7.47-5.74,35.38,35.38,0,0,1,2.09-3l-2,2.53a36.59,36.59,0,0,1,6.27-6.29l-2.53,2a36.83,36.83,0,0,1,7.91-4.67l-3,1.26c1.14-.47,2.29-.89,3.46-1.26a13,13,0,0,0,7.47-5.74A12.5,12.5,0,0,0,523,107.94Z"/><path class="cls-9" d="M495,131.33c-2.87,4.46-4.22,9.8-5.7,14.85a77.78,77.78,0,0,0-3.44,16.34c-.22,3,1.56,6.73,3.66,8.84a12.51,12.51,0,0,0,17.68,0,13.82,13.82,0,0,0,3.66-8.84c.05-.63.11-1.25.19-1.87L510.6,164a73.81,73.81,0,0,1,2.55-10.25,95.64,95.64,0,0,1,3.07-9.69L515,147a19.7,19.7,0,0,1,1.63-3.08A12.5,12.5,0,1,0,495,131.33Z"/><path class="cls-9" d="M502.94,153.57a12.93,12.93,0,0,0,8.84-3.66,12.51,12.51,0,0,0,0-17.68,12.51,12.51,0,0,0-17.68,0,12.51,12.51,0,0,0,0,17.68,13,13,0,0,0,8.84,3.66Z"/><path class="cls-9" d="M503.2,152.42a12.9,12.9,0,0,0,8.84-3.66,12.51,12.51,0,0,0,0-17.68,13,13,0,0,0-8.84-3.66,12.88,12.88,0,0,0-8.84,3.66,12.51,12.51,0,0,0,0,17.68,13,13,0,0,0,8.84,3.66Z"/><path class="cls-9" d="M490.74,139.79q0,.33-.06.66l.45-3.32a6.28,6.28,0,0,1-.45,1.59l1.26-3a6.54,6.54,0,0,1-.78,1.33l2-2.53c-.45.57-1,1.05-1.45,1.61-.66.83-1.42,1.79-2,2.65-.05.06-.09.13-.14.2a3.75,3.75,0,0,0-.24.44l-1.26,3a.69.69,0,0,0-.05.13,1.42,1.42,0,0,0-.07.22,17.25,17.25,0,0,0-.49,3.78,9.39,9.39,0,0,0,1.08,4.82,9.29,9.29,0,0,0,2.58,4,13.8,13.8,0,0,0,8.84,3.66l3.32-.44a12.55,12.55,0,0,0,5.52-3.22l1.95-2.53a12.48,12.48,0,0,0,1.71-6.31c0-.09,0-.18,0-.28L512,149.6a2.31,2.31,0,0,1,.15-.53l-1.26,3a3.52,3.52,0,0,1,.43-.72l-1.95,2.53c.31-.39.66-.74,1-1.1a21.52,21.52,0,0,0,2.86-3.72,19.25,19.25,0,0,0,2.56-9.25,9.35,9.35,0,0,0-1.08-4.81,11.19,11.19,0,0,0-6.6-6.61,9.51,9.51,0,0,0-4.82-1.08l-3.32.45A12.44,12.44,0,0,0,494.4,131l-1.95,2.53a12.48,12.48,0,0,0-1.71,6.31Z"/><path class="cls-9" d="M499.5,160.46a12.86,12.86,0,0,0,8.83-3.66,12.48,12.48,0,0,0,0-17.68,12.49,12.49,0,0,0-17.67,0,12.51,12.51,0,0,0,0,17.68,13,13,0,0,0,8.84,3.66Z"/><path class="cls-10" d="M489.77,141a.43.43,0,0,0-.09.1l0,0-1,1.27-1,1.28,0,0a1,1,0,0,0-.12.23h0l-1.26,3v0s0,0,0,.06a.65.65,0,0,0,0,.13c-.13.56-.21,1.54-.24,1.78s-.21,1.21-.24,1.79a9.51,9.51,0,0,0,1.08,4.82,12.88,12.88,0,0,0,11.42,7.68l3.33-.45a12.46,12.46,0,0,0,5.51-3.21l2-2.53a12.37,12.37,0,0,0,1.7-6.31s0-.09,0-.13l-.44,3.32a1,1,0,0,1,.09-.33l-1.26,3a1.11,1.11,0,0,1,.17-.3l-1.95,2.53a.69.69,0,0,1,.11-.13,13.8,13.8,0,0,0,3.66-8.84,13.8,13.8,0,0,0-3.66-8.84l-2.53-1.95a12.38,12.38,0,0,0-6.31-1.71l-3.32.45a12.4,12.4,0,0,0-5.51,3.21Z"/><path class="cls-9" d="M484.89,151.28l-.13.64a9.48,9.48,0,0,0-.22,5,9.32,9.32,0,0,0,1.48,4.65,9.51,9.51,0,0,0,3.22,3.5,9.35,9.35,0,0,0,4.25,2.24l3.32.45a12.48,12.48,0,0,0,6.31-1.71l2.53-1.95a12.55,12.55,0,0,0,3.22-5.52l.13-.64a9.48,9.48,0,0,0,.22-5,9.42,9.42,0,0,0-1.48-4.65,9.54,9.54,0,0,0-3.22-3.51,9.43,9.43,0,0,0-4.25-2.23l-3.33-.45a12.5,12.5,0,0,0-6.31,1.71l-2.53,1.95a12.44,12.44,0,0,0-3.21,5.52Z"/><path class="cls-9" d="M484.06,158.17v1.28a13.95,13.95,0,0,0,3.66,8.84,13.95,13.95,0,0,0,8.84,3.66l3.32-.45a12.44,12.44,0,0,0,5.52-3.21l2-2.53a12.48,12.48,0,0,0,1.71-6.31v-1.28a13.95,13.95,0,0,0-3.66-8.83,9.4,9.4,0,0,0-4-2.59,9.51,9.51,0,0,0-4.82-1.08l-3.32.45a12.55,12.55,0,0,0-5.52,3.22l-2,2.53a12.47,12.47,0,0,0-1.71,6.3Z"/><path class="cls-9" d="M484.33,163a16,16,0,0,0,.05,2.68,9.51,9.51,0,0,0,1.08,4.82,12.82,12.82,0,0,0,11.42,7.68l3.33-.44a12.52,12.52,0,0,0,5.51-3.22l2-2.53a12.37,12.37,0,0,0,1.7-6.31,16,16,0,0,1-.05-2.68,9.51,9.51,0,0,0-1.08-4.82,9.29,9.29,0,0,0-2.58-4,9.49,9.49,0,0,0-4-2.59,9.37,9.37,0,0,0-4.81-1.07l-3.33.44a12.57,12.57,0,0,0-5.51,3.22l-2,2.53a12.37,12.37,0,0,0-1.7,6.31Z"/><path class="cls-9" d="M485.27,169.67l1.38,5.24a9.39,9.39,0,0,0,2.24,4.25,9.51,9.51,0,0,0,3.5,3.22,9.32,9.32,0,0,0,4.65,1.48,9.52,9.52,0,0,0,5-.22l3-1.26a12.55,12.55,0,0,0,4.49-4.49l1.26-3a12.71,12.71,0,0,0,0-6.65L509.38,163a14,14,0,0,0-5.75-7.47,9.25,9.25,0,0,0-4.65-1.48,9.48,9.48,0,0,0-5,.22l-3,1.26a12.52,12.52,0,0,0-4.48,4.49l-1.26,3a12.51,12.51,0,0,0,0,6.65Z"/><path class="cls-9" d="M483.8,168.26v.26a9.47,9.47,0,0,0,1.08,4.81,11.31,11.31,0,0,0,6.61,6.61A9.47,9.47,0,0,0,496.3,181l3.33-.45a12.57,12.57,0,0,0,5.51-3.22l2-2.53a12.36,12.36,0,0,0,1.7-6.3v-.26a13.8,13.8,0,0,0-3.66-8.84,9.29,9.29,0,0,0-4-2.58,9.39,9.39,0,0,0-4.82-1.08l-3.32.45a12.4,12.4,0,0,0-5.51,3.21l-2,2.53a12.48,12.48,0,0,0-1.71,6.31Z"/><path class="cls-9" d="M485.53,175.54a43.87,43.87,0,0,0,2.24,9,12.05,12.05,0,0,0,10.39,9,9.38,9.38,0,0,0,5-.23l3-1.26a12.49,12.49,0,0,0,4.48-4.48l1.26-3a12.47,12.47,0,0,0,0-6.64,44.67,44.67,0,0,1-2.23-9,13.95,13.95,0,0,0-5.74-7.47,9.33,9.33,0,0,0-4.65-1.49,9.42,9.42,0,0,0-5,.23l-3,1.26a12.6,12.6,0,0,0-4.49,4.48l-1.26,3a12.68,12.68,0,0,0,0,6.64Z"/><path class="cls-9" d="M489.32,188.51l.94,2.24a36,36,0,0,0,2.09,4.81c.09.14.19.28.29.41a34.41,34.41,0,0,0,2.16,2.78c.22.24.47.46.71.68a10.44,10.44,0,0,1,1.41,1.41L495,198.31a11.72,11.72,0,0,1,1.38,2.53l-1.26-3,.39,1a12.9,12.9,0,0,0,15.38,8.73l3-1.26a12.6,12.6,0,0,0,4.49-4.48l1.26-3a12.68,12.68,0,0,0,0-6.64c-.61-1.54-1.23-3.07-1.93-4.57a10,10,0,0,0-.95-1.69,36.86,36.86,0,0,0-2.43-3.13c-.21-.22-.43-.43-.65-.64a12,12,0,0,1-1.36-1.31l2,2.53a6.15,6.15,0,0,1-.73-1.33l1.26,3-1.32-3.14a12.9,12.9,0,0,0-15.38-8.73l-3,1.26a12.71,12.71,0,0,0-4.49,4.49l-1.26,3a12.71,12.71,0,0,0,0,6.65Z"/><path class="cls-9" d="M505,204.63a12.51,12.51,0,0,0,12.5-12.5,12.66,12.66,0,0,0-3.67-8.84,12.49,12.49,0,0,0-17.67,0,12.7,12.7,0,0,0-3.66,8.84,12.57,12.57,0,0,0,3.66,8.84,13,13,0,0,0,8.84,3.66Z"/><path class="cls-10" d="M496.51,200.59a29,29,0,0,0,6.5,7.34c1.7,1.32,3.38,2.65,5.18,3.82,1,.64,2,1.24,3,1.84a9.26,9.26,0,0,0,4.64,1.49,9.52,9.52,0,0,0,5-.23,9.35,9.35,0,0,0,4.25-2.24,9.51,9.51,0,0,0,3.22-3.5l1.26-3a12.68,12.68,0,0,0,0-6.64l-1.26-3a12.52,12.52,0,0,0-4.49-4.48,60.57,60.57,0,0,1-5.56-3.66l2.53,2a21.3,21.3,0,0,1-3.76-3.65l2,2.53c-.3-.39-.58-.8-.85-1.21a9.36,9.36,0,0,0-3.21-3.51,11.23,11.23,0,0,0-9.24-2.46,9.32,9.32,0,0,0-4.65,1.48l-2.53,2a12.46,12.46,0,0,0-3.21,5.51l-.45,3.33a12.5,12.5,0,0,0,1.71,6.31Z"/><path class="cls-9" d="M499.89,205.16c2.79,4.56,6.05,9.06,10.82,11.73,5,2.81,10.69,3.39,16.36,3.27a13,13,0,0,0,8.84-3.66,9.38,9.38,0,0,0,2.58-4,9.51,9.51,0,0,0,1.08-4.82,12.69,12.69,0,0,0-3.66-8.84,12.84,12.84,0,0,0-8.84-3.66,37.77,37.77,0,0,1-5.53-.17l3.32.45a14.85,14.85,0,0,1-3.41-.87l3,1.26a11,11,0,0,1-2.29-1.31l2.53,1.95a14.9,14.9,0,0,1-2.69-2.75l1.95,2.53c-.89-1.19-1.68-2.44-2.45-3.71a13.07,13.07,0,0,0-7.47-5.75,9.52,9.52,0,0,0-5-.22,9.35,9.35,0,0,0-4.64,1.48,12.68,12.68,0,0,0-5.75,7.48,12.89,12.89,0,0,0,1.26,9.63Z"/><path class="cls-10" d="M512.28,211a33.81,33.81,0,0,0,2.39,3.08,25.49,25.49,0,0,0,3,2.43,19.36,19.36,0,0,0,4.81,2.3,27.73,27.73,0,0,0,7.78,1.29,52.83,52.83,0,0,0,14.87-1.47,77.17,77.17,0,0,0,11.4-3.65,69.89,69.89,0,0,0,11.79-5.51,33.56,33.56,0,0,0,11.73-11.77,13,13,0,0,0,1.26-9.63,12.5,12.5,0,0,0-22.84-3,18.29,18.29,0,0,1-1.45,2.21l2-2.53a21.35,21.35,0,0,1-3.75,3.67l2.53-2a41.15,41.15,0,0,1-8.78,4.81l3-1.26a71.44,71.44,0,0,1-17.6,5.23l3.32-.44a36.63,36.63,0,0,1-9.06.12l3.32.44a12.71,12.71,0,0,1-3.15-.82l3,1.26a7.77,7.77,0,0,1-1.49-.9l2.53,2a7.38,7.38,0,0,1-.74-.74l2,2.53-.21-.28a14,14,0,0,0-7.48-5.75,12.8,12.8,0,0,0-9.63,1.26,12.6,12.6,0,0,0-5.74,7.47c-.7,3.07-.71,7,1.26,9.64Z"/><path class="cls-10" d="M574.94,154.93a12.88,12.88,0,0,0,8.84-3.66,12.51,12.51,0,0,0,0-17.68,12.51,12.51,0,0,0-17.68,0,12.51,12.51,0,0,0,0,17.68,13,13,0,0,0,8.84,3.66Z"/><path class="cls-10" d="M574.94,152.89a12.93,12.93,0,0,0,8.84-3.66,12.7,12.7,0,0,0,3.66-8.84,12.57,12.57,0,0,0-3.66-8.84,12.51,12.51,0,0,0-17.68,0,12.51,12.51,0,0,0,0,17.68,13,13,0,0,0,8.84,3.66Z"/><path class="cls-10" d="M562.43,140.39l-2.28,31.66c-.22,3.06,1.55,6.73,3.66,8.84a12.51,12.51,0,0,0,17.68,0,13.85,13.85,0,0,0,3.66-8.84l2.28-31.66c.23-3.06-1.55-6.73-3.66-8.84a12.49,12.49,0,0,0-17.67,0,13.8,13.8,0,0,0-3.67,8.84Z"/><path class="cls-10" d="M574.26,182.85a12.89,12.89,0,0,0,8.84-3.67,12.49,12.49,0,0,0,0-17.67,12.51,12.51,0,0,0-17.68,0,12.49,12.49,0,0,0,0,17.67,13,13,0,0,0,8.84,3.67Z"/><path class="cls-10" d="M575.45,182.85a12.87,12.87,0,0,0,8.84-3.67,12.49,12.49,0,0,0,0-17.67,12.51,12.51,0,0,0-17.68,0,12.49,12.49,0,0,0,0,17.67,13,13,0,0,0,8.84,3.67Z"/><path class="cls-10" d="M575.45,178.93a12.86,12.86,0,0,0,8.84-3.66,12.51,12.51,0,0,0,0-17.68,12.51,12.51,0,0,0-17.68,0,12.51,12.51,0,0,0,0,17.68,13,13,0,0,0,8.84,3.66Z"/><path class="cls-10" d="M575.28,176.55a12.91,12.91,0,0,0,8.84-3.66,12.7,12.7,0,0,0,3.66-8.84,12.57,12.57,0,0,0-3.66-8.84,12.51,12.51,0,0,0-17.68,0,12.51,12.51,0,0,0,0,17.68,13,13,0,0,0,8.84,3.66Z"/><path class="cls-10" d="M575.28,172.63a12.86,12.86,0,0,0,8.84-3.66,12.51,12.51,0,0,0,0-17.68,12.51,12.51,0,0,0-17.68,0,12.51,12.51,0,0,0,0,17.68,13,13,0,0,0,8.84,3.66Z"/><path class="cls-10" d="M575.45,170.08a12.91,12.91,0,0,0,8.84-3.66,12.51,12.51,0,0,0,0-17.68,12.51,12.51,0,0,0-17.68,0,12.51,12.51,0,0,0,0,17.68,13,13,0,0,0,8.84,3.66Z"/><path class="cls-10" d="M575.62,166.5a12.86,12.86,0,0,0,8.84-3.66,12.49,12.49,0,0,0,0-17.67,12.48,12.48,0,0,0-17.68,0,12.49,12.49,0,0,0,0,17.67,13,13,0,0,0,8.84,3.66Z"/><path class="cls-10" d="M576.13,165a12.86,12.86,0,0,0,8.84-3.66,12.51,12.51,0,0,0,0-17.68,12.49,12.49,0,0,0-17.67,0,12.48,12.48,0,0,0,0,17.68,13,13,0,0,0,8.83,3.66Z"/><path class="cls-10" d="M563.1,177.83a142.34,142.34,0,0,0,.56,29.11,9.47,9.47,0,0,0,1.08,4.81,9.38,9.38,0,0,0,2.58,4,12.51,12.51,0,0,0,17.68,0c2.08-2.27,4.06-5.63,3.66-8.84a142.34,142.34,0,0,1-.56-29.11c.25-3-1.58-6.75-3.66-8.84a12.51,12.51,0,0,0-17.68,0,14,14,0,0,0-3.66,8.84Z"/><path class="cls-10" d="M570.18,216a12.94,12.94,0,0,0,8.84-3.66,12.51,12.51,0,0,0,0-17.68,12.51,12.51,0,0,0-17.68,0,12.51,12.51,0,0,0,0,17.68,13,13,0,0,0,8.84,3.66Z"/><path class="cls-10" d="M569.67,217.57a12.9,12.9,0,0,0,8.83-3.66,12.48,12.48,0,0,0,0-17.68,12.49,12.49,0,0,0-17.67,0,12.51,12.51,0,0,0,0,17.68,13,13,0,0,0,8.84,3.66Z"/><path class="cls-9" d="M548.39,222a12.9,12.9,0,0,0,8.84-3.66,12.49,12.49,0,0,0,0-17.67,12.48,12.48,0,0,0-17.68,0,12.49,12.49,0,0,0,0,17.67,13,13,0,0,0,8.84,3.66Z"/><path class="cls-10" d="M550.77,221.82a12.88,12.88,0,0,0,8.84-3.66,12.51,12.51,0,0,0,0-17.68,12.51,12.51,0,0,0-17.68,0,12.51,12.51,0,0,0,0,17.68,13,13,0,0,0,8.84,3.66Z"/><path class="cls-9" d="M539.71,223.53a12.91,12.91,0,0,0,8.84-3.67,12.49,12.49,0,0,0,0-17.67,12.51,12.51,0,0,0-17.68,0,12.49,12.49,0,0,0,0,17.67,13,13,0,0,0,8.84,3.67Z"/><path class="cls-9" d="M544,224a12.91,12.91,0,0,0,8.84-3.66,12.7,12.7,0,0,0,3.66-8.84,12.57,12.57,0,0,0-3.66-8.84,12.49,12.49,0,0,0-17.67,0,12.48,12.48,0,0,0,0,17.68A13,13,0,0,0,544,224Z"/><path class="cls-10" d="M540.73,210.69h-.17"/><path class="cls-9" d="M540.73,198.19h-.17a13.8,13.8,0,0,0-8.84,3.66,13.95,13.95,0,0,0-3.66,8.84l.45,3.32a12.4,12.4,0,0,0,3.21,5.51l2.53,2a12.48,12.48,0,0,0,6.31,1.71h.17a9.51,9.51,0,0,0,4.82-1.08,9.4,9.4,0,0,0,4-2.59,13.95,13.95,0,0,0,3.66-8.83l-.45-3.33a12.4,12.4,0,0,0-3.21-5.51l-2.53-2a12.37,12.37,0,0,0-6.31-1.7Z"/><path class="cls-9" d="M536.47,222.67a12.86,12.86,0,0,0,8.84-3.66,12.49,12.49,0,0,0,0-17.67,12.47,12.47,0,0,0-17.67,0,12.47,12.47,0,0,0,0,17.67,13,13,0,0,0,8.83,3.66Z"/><path class="cls-9" d="M536.47,223.36a12.87,12.87,0,0,0,8.84-3.67,12.49,12.49,0,0,0,0-17.67,12.49,12.49,0,0,0-17.67,0,12.47,12.47,0,0,0,0,17.67,13,13,0,0,0,8.83,3.67Z"/><path class="cls-9" d="M534.6,223.87a12.93,12.93,0,0,0,8.84-3.66,12.7,12.7,0,0,0,3.66-8.84,12.57,12.57,0,0,0-3.66-8.84,12.51,12.51,0,0,0-17.68,0,12.51,12.51,0,0,0,0,17.68,13,13,0,0,0,8.84,3.66Z"/><path class="cls-10" d="M531.2,222.5a12.9,12.9,0,0,0,8.84-3.66,12.49,12.49,0,0,0,0-17.67,12.48,12.48,0,0,0-17.68,0,12.49,12.49,0,0,0,0,17.67,13,13,0,0,0,8.84,3.66Z"/><path class="cls-10" d="M528.81,222.85a12.87,12.87,0,0,0,8.84-3.67,12.49,12.49,0,0,0,0-17.67,12.49,12.49,0,0,0-17.67,0,12.47,12.47,0,0,0,0,17.67,13,13,0,0,0,8.83,3.67Z"/><path class="cls-10" d="M567.11,218.58a5,5,0,1,0-5-5,5.05,5.05,0,0,0,5,5Z"/><path class="cls-10" d="M564.9,218.58a5,5,0,1,0-5-5,5.05,5.05,0,0,0,5,5Z"/><path class="cls-10" d="M564.39,218.58a5,5,0,1,0-5-5,5.06,5.06,0,0,0,5,5Z"/><path class="cls-10" d="M564.05,219.26a5,5,0,1,0-5-5,5.06,5.06,0,0,0,5,5Z"/><path class="cls-10" d="M562.69,218.41a5,5,0,1,0-5-5,5.06,5.06,0,0,0,5,5Z"/><path class="cls-10" d="M562.69,218.75a5,5,0,1,0-5-5,5.06,5.06,0,0,0,5,5Z"/><path class="cls-10" d="M566.43,219.68a15.06,15.06,0,0,1,2.58-.58l-1.33.18a61.2,61.2,0,0,1,7.54-.2h7.89a5,5,0,0,0,0-10h-9.5c-3.29,0-6.68-.06-9.84,1-2.49.8-4.35,3.5-3.49,6.15a5.06,5.06,0,0,0,6.15,3.49Z"/><path class="cls-10" d="M583.62,219.6a5,5,0,1,0-5-5,5.05,5.05,0,0,0,5,5Z"/><path class="cls-10" d="M583.62,220.11a5,5,0,1,0-5-5,5.05,5.05,0,0,0,5,5Z"/><path class="cls-10" d="M576.81,219.26a5,5,0,1,0-5-5,5,5,0,0,0,5,5Z"/><path class="cls-10" d="M550.22,134.53l1.26-.31a14,14,0,0,0,7.47-5.74,9.32,9.32,0,0,0,1.48-4.65,9.42,9.42,0,0,0-.22-5l-1.26-3a12.6,12.6,0,0,0-4.48-4.49l-3-1.26a12.71,12.71,0,0,0-6.65,0l-1.26.31a14,14,0,0,0-7.47,5.75,9.25,9.25,0,0,0-1.48,4.64,9.41,9.41,0,0,0,.22,5l1.26,3a12.6,12.6,0,0,0,4.48,4.49l3,1.26a12.71,12.71,0,0,0,6.65,0Z"/><path class="cls-10" d="M543.19,132.53a12.9,12.9,0,0,0,8.83-3.66,12.48,12.48,0,0,0,0-17.68,12.49,12.49,0,0,0-17.67,0,12.51,12.51,0,0,0,0,17.68,13,13,0,0,0,8.84,3.66Z"/><path class="cls-10" d="M540.63,107.06c-2.49-.08-5-.27-7.5-.15a40.66,40.66,0,0,0-10.08,1.69,13.18,13.18,0,0,0-7.47,5.75A9.25,9.25,0,0,0,514.1,119a9.42,9.42,0,0,0,.22,5,12.5,12.5,0,0,0,15.38,8.73,28.32,28.32,0,0,1,4.64-1.05l-3.32.45a59.29,59.29,0,0,1,9.61-.05,9.51,9.51,0,0,0,4.82-1.08,9.29,9.29,0,0,0,4-2.58,9.43,9.43,0,0,0,2.59-4,9.37,9.37,0,0,0,1.07-4.81,12.63,12.63,0,0,0-3.66-8.84l-2.53-2a12.38,12.38,0,0,0-6.31-1.71Z"/><path class="cls-10" d="M528.63,107h-.12a13.8,13.8,0,0,0-8.84,3.66,9.4,9.4,0,0,0-2.59,4,9.4,9.4,0,0,0-1.07,4.82l.44,3.32a12.46,12.46,0,0,0,3.22,5.51l2.53,2a12.48,12.48,0,0,0,6.31,1.71h.12a9.51,9.51,0,0,0,4.82-1.08,11.31,11.31,0,0,0,6.61-6.61,9.37,9.37,0,0,0,1.07-4.81l-.44-3.33a12.57,12.57,0,0,0-3.22-5.51l-2.53-2a12.37,12.37,0,0,0-6.31-1.7Z"/><path class="cls-10" d="M520.06,108.91l-.17.08,3-1.26c-.93.39-1.93.6-2.87,1a37.77,37.77,0,0,0-5.53,2.53,70.65,70.65,0,0,0-7.28,5.36,9.4,9.4,0,0,0-2.59,4,11.37,11.37,0,0,0,0,9.63,9.4,9.4,0,0,0,2.59,4l2.53,2a12.48,12.48,0,0,0,6.31,1.71l3.32-.45a12.46,12.46,0,0,0,5.52-3.22l1-.77-2.53,1.95a27.63,27.63,0,0,1,6.06-3.79l-3,1.26a17.32,17.32,0,0,1,1.71-.6,34.94,34.94,0,0,0,4.56-1.82,9.38,9.38,0,0,0,3.51-3.22,11.19,11.19,0,0,0,2.46-9.23,9.35,9.35,0,0,0-1.48-4.65l-2-2.53a12.55,12.55,0,0,0-5.52-3.22l-3.32-.44a12.4,12.4,0,0,0-6.31,1.7Z"/><path class="cls-10" d="M520.72,139.68a12.91,12.91,0,0,0,8.84-3.67,12.49,12.49,0,0,0,0-17.67,12.51,12.51,0,0,0-17.68,0,12.49,12.49,0,0,0,0,17.67,13,13,0,0,0,8.84,3.67Z"/><path class="cls-10" d="M509.36,149.89a12.9,12.9,0,0,0,8.83-3.66,12.48,12.48,0,0,0,0-17.68,12.49,12.49,0,0,0-17.67,0,12.51,12.51,0,0,0,0,17.68,13,13,0,0,0,8.84,3.66Z"/><path class="cls-10" d="M507.82,149.89a12.91,12.91,0,0,0,8.84-3.66,12.51,12.51,0,0,0,0-17.68,12.49,12.49,0,0,0-17.67,0,12.48,12.48,0,0,0,0,17.68,13,13,0,0,0,8.83,3.66Z"/><path class="cls-10" d="M507.31,148.23a12.91,12.91,0,0,0,8.84-3.66,12.51,12.51,0,0,0,0-17.68,12.51,12.51,0,0,0-17.68,0,12.51,12.51,0,0,0,0,17.68,13,13,0,0,0,8.84,3.66Z"/><path class="cls-10" d="M519.19,131a2.52,2.52,0,0,1-.12-.39l.45,3.32a2,2,0,0,1,0-.54l-.45,3.33a2.94,2.94,0,0,1,.19-.66L518,139a3.58,3.58,0,0,1,.36-.59l-2,2.53a4.45,4.45,0,0,1,.74-.7l-2.53,1.95c.27-.2.56-.39.85-.57a29.42,29.42,0,0,0,3.29-2.47,17.31,17.31,0,0,0,1.51-1.58,43.35,43.35,0,0,1,3.37-3.13,9.38,9.38,0,0,0,2.58-4,11.27,11.27,0,0,0,0-9.63,9.29,9.29,0,0,0-2.58-4l-2.53-2a12.4,12.4,0,0,0-6.31-1.7l-3.33.44a12.57,12.57,0,0,0-5.51,3.22c-.88.76-1.75,1.52-2.58,2.32a32.39,32.39,0,0,1-2.29,2.39l2.53-2c-1.64,1.22-3.54,2.17-4.89,3.74a34,34,0,0,0-2.08,2.7c-.07.1-.12.2-.18.3a15,15,0,0,0-1.46,3.5c-.56,2.29-.82,5.58.08,7.84a9.44,9.44,0,0,0,2.24,4.25,11.25,11.25,0,0,0,8.15,4.71,9.42,9.42,0,0,0,5-.23l3-1.26a12.57,12.57,0,0,0,4.48-4.48l1.26-3a12.47,12.47,0,0,0,0-6.64Z"/><path class="cls-10" d="M513.31,138.65a12.86,12.86,0,0,0,8.84-3.66,12.49,12.49,0,0,0,0-17.67,12.48,12.48,0,0,0-17.68,0,12.49,12.49,0,0,0,0,17.67,13,13,0,0,0,8.84,3.66Z"/><path class="cls-10" d="M514.85,137.38a12.9,12.9,0,0,0,8.83-3.66,12.48,12.48,0,0,0,0-17.68A12.49,12.49,0,0,0,506,116a12.51,12.51,0,0,0,0,17.68,13,13,0,0,0,8.84,3.66Z"/><path class="cls-10" d="M503.48,152.57a12.91,12.91,0,0,0,8.84-3.66,12.51,12.51,0,0,0,0-17.68,12.51,12.51,0,0,0-17.68,0,12.51,12.51,0,0,0,0,17.68,13,13,0,0,0,8.84,3.66Z"/><path class="cls-10" d="M502.33,152.19a12.91,12.91,0,0,0,8.84-3.66,12.7,12.7,0,0,0,3.66-8.84,12.57,12.57,0,0,0-3.66-8.84,12.49,12.49,0,0,0-17.67,0,12.48,12.48,0,0,0,0,17.68,13,13,0,0,0,8.83,3.66Z"/><path class="cls-10" d="M490,136.72,489,143.48a29.72,29.72,0,0,1-1.25,6.36l1.26-3a6.62,6.62,0,0,1-.3.66,9.33,9.33,0,0,0-1.49,4.65,11.32,11.32,0,0,0,2.46,9.24,9.54,9.54,0,0,0,3.51,3.22,12.63,12.63,0,0,0,9.63,1.26c3-1,6-2.85,7.47-5.75a21.14,21.14,0,0,0,2.19-6c.21-1.16.37-2.32.55-3.48l1.13-7.29a9.52,9.52,0,0,0,.22-5,9.32,9.32,0,0,0-1.48-4.65,9.51,9.51,0,0,0-3.22-3.5,9.39,9.39,0,0,0-4.25-2.24l-3.32-.45a12.48,12.48,0,0,0-6.31,1.71l-2.53,1.95a12.55,12.55,0,0,0-3.22,5.52Z"/><path class="cls-10" d="M502.33,161.38a12.91,12.91,0,0,0,8.84-3.66,12.51,12.51,0,0,0,0-17.68,12.49,12.49,0,0,0-17.67,0,12.48,12.48,0,0,0,0,17.68,13,13,0,0,0,8.83,3.66Z"/><path class="cls-10" d="M504.12,161a12.88,12.88,0,0,0,8.84-3.66,12.49,12.49,0,0,0,0-17.67,12.48,12.48,0,0,0-17.68,0,12.49,12.49,0,0,0,0,17.67,13,13,0,0,0,8.84,3.66Z"/><path class="cls-10" d="M501.19,164.31a12.86,12.86,0,0,0,8.83-3.66A12.47,12.47,0,0,0,510,143a12.47,12.47,0,0,0-17.67,0,12.49,12.49,0,0,0,0,17.67,13,13,0,0,0,8.84,3.66Z"/><path class="cls-10" d="M500.16,176.82a12.86,12.86,0,0,0,8.84-3.66,12.49,12.49,0,0,0,0-17.67,12.47,12.47,0,0,0-17.67,0,12.47,12.47,0,0,0,0,17.67,13,13,0,0,0,8.83,3.66Z"/><path class="cls-10" d="M488.94,171.22v.25a9.51,9.51,0,0,0,1.08,4.82,9.29,9.29,0,0,0,2.58,4,13.86,13.86,0,0,0,8.84,3.66l3.32-.44a12.55,12.55,0,0,0,5.52-3.22l2-2.53a12.38,12.38,0,0,0,1.71-6.31v-.25a13.95,13.95,0,0,0-3.66-8.84,13.8,13.8,0,0,0-8.84-3.66l-3.32.44a12.55,12.55,0,0,0-5.52,3.22l-2,2.53a12.48,12.48,0,0,0-1.71,6.31Z"/><path class="cls-10" d="M489.71,177v.13a13.8,13.8,0,0,0,3.66,8.84,13.95,13.95,0,0,0,8.84,3.66l3.32-.45a12.44,12.44,0,0,0,5.52-3.21L513,183.4a12.48,12.48,0,0,0,1.71-6.31V177a14,14,0,0,0-3.66-8.84,14,14,0,0,0-8.84-3.66l-3.33.45a12.46,12.46,0,0,0-5.51,3.21l-2,2.53a12.4,12.4,0,0,0-1.7,6.31Z"/><path class="cls-10" d="M503.87,195a12.9,12.9,0,0,0,8.84-3.66,12.51,12.51,0,0,0,0-17.68,12.51,12.51,0,0,0-17.68,0,12.7,12.7,0,0,0-3.66,8.84,12.57,12.57,0,0,0,3.66,8.84,13,13,0,0,0,8.84,3.66Z"/><path class="cls-10" d="M504.89,199.55a12.94,12.94,0,0,0,8.84-3.66,12.51,12.51,0,0,0,0-17.68,12.51,12.51,0,0,0-17.68,0,12.51,12.51,0,0,0,0,17.68,13,13,0,0,0,8.84,3.66Z"/><path class="cls-10" d="M506.68,203.12a12.51,12.51,0,0,0,12.5-12.5,12.66,12.66,0,0,0-3.67-8.84,12.49,12.49,0,0,0-17.67,0,12.7,12.7,0,0,0-3.66,8.84,12.57,12.57,0,0,0,3.66,8.84,13,13,0,0,0,8.84,3.66Z"/><path class="cls-10" d="M509.61,205.93a12.88,12.88,0,0,0,8.84-3.66,12.51,12.51,0,0,0,0-17.68,12.51,12.51,0,0,0-17.68,0,12.51,12.51,0,0,0,0,17.68,13,13,0,0,0,8.84,3.66Z"/><path class="cls-10" d="M511.65,207.08a12.86,12.86,0,0,0,8.84-3.66,12.51,12.51,0,0,0,0-17.68,13,13,0,0,0-8.84-3.66,12.86,12.86,0,0,0-8.83,3.66,12.48,12.48,0,0,0,0,17.68,13,13,0,0,0,8.83,3.66Z"/><path class="cls-10" d="M505.14,205.29a12.86,12.86,0,0,0,8.84-3.66A12.51,12.51,0,0,0,514,184a12.51,12.51,0,0,0-17.68,0,12.51,12.51,0,0,0,0,17.68,13,13,0,0,0,8.84,3.66Z"/><path class="cls-10" d="M504.63,202.87a12.93,12.93,0,0,0,8.84-3.66,12.7,12.7,0,0,0,3.66-8.84,12.57,12.57,0,0,0-3.66-8.84,12.51,12.51,0,0,0-17.68,0,12.51,12.51,0,0,0,0,17.68,13,13,0,0,0,8.84,3.66Z"/><path class="cls-10" d="M503.36,201.85a12.87,12.87,0,0,0,8.83-3.67,12.47,12.47,0,0,0,0-17.67,12.49,12.49,0,0,0-17.67,0,12.49,12.49,0,0,0,0,17.67,13,13,0,0,0,8.84,3.67Z"/><path class="cls-10" d="M502.59,201.21a12.93,12.93,0,0,0,8.84-3.66,12.51,12.51,0,0,0,0-17.68,12.51,12.51,0,0,0-17.68,0,12.51,12.51,0,0,0,0,17.68,13,13,0,0,0,8.84,3.66Z"/><path class="cls-10" d="M501.19,200.06A12.9,12.9,0,0,0,510,196.4a12.48,12.48,0,0,0,0-17.68,12.49,12.49,0,0,0-17.67,0,12.51,12.51,0,0,0,0,17.68,13,13,0,0,0,8.84,3.66Z"/><path class="cls-10" d="M500,195a12.9,12.9,0,0,0,8.84-3.66,12.51,12.51,0,0,0,0-17.68,12.51,12.51,0,0,0-17.68,0,12.7,12.7,0,0,0-3.66,8.84,12.57,12.57,0,0,0,3.66,8.84A13,13,0,0,0,500,195Z"/><path class="cls-10" d="M499.78,192.78a12.88,12.88,0,0,0,8.84-3.66,12.51,12.51,0,0,0,0-17.68,12.51,12.51,0,0,0-17.68,0,12.51,12.51,0,0,0,0,17.68,13,13,0,0,0,8.84,3.66Z"/><path class="cls-10" d="M498.38,190a12.9,12.9,0,0,0,8.84-3.66,12.51,12.51,0,0,0,0-17.68,12.51,12.51,0,0,0-17.68,0,12.7,12.7,0,0,0-3.66,8.84,12.57,12.57,0,0,0,3.66,8.84,13,13,0,0,0,8.84,3.66Z"/><path class="cls-10" d="M497.87,187.8a12.9,12.9,0,0,0,8.84-3.66,12.51,12.51,0,0,0,0-17.68,12.51,12.51,0,0,0-17.68,0,12.7,12.7,0,0,0-3.66,8.84,12.57,12.57,0,0,0,3.66,8.84,13,13,0,0,0,8.84,3.66Z"/><path class="cls-10" d="M496.08,183.34a12.91,12.91,0,0,0,8.84-3.67,12.49,12.49,0,0,0,0-17.67,12.51,12.51,0,0,0-17.68,0,12.49,12.49,0,0,0,0,17.67,13,13,0,0,0,8.84,3.67Z"/><path class="cls-10" d="M496.21,179a12.9,12.9,0,0,0,8.84-3.66,12.49,12.49,0,0,0,0-17.67,12.48,12.48,0,0,0-17.68,0,12.49,12.49,0,0,0,0,17.67,13,13,0,0,0,8.84,3.66Z"/><path class="cls-10" d="M496.21,175.93a12.9,12.9,0,0,0,8.84-3.66,12.51,12.51,0,0,0,0-17.68,12.51,12.51,0,0,0-17.68,0,12.51,12.51,0,0,0,0,17.68,13,13,0,0,0,8.84,3.66Z"/><path class="cls-10" d="M496.72,171.08a12.9,12.9,0,0,0,8.84-3.66,12.51,12.51,0,0,0,0-17.68,13,13,0,0,0-8.84-3.66,12.88,12.88,0,0,0-8.84,3.66,12.51,12.51,0,0,0,0,17.68,13,13,0,0,0,8.84,3.66Z"/><path class="cls-10" d="M496.46,170.19a12.93,12.93,0,0,0,8.84-3.66,12.7,12.7,0,0,0,3.66-8.84,12.57,12.57,0,0,0-3.66-8.84,12.51,12.51,0,0,0-17.68,0,12.51,12.51,0,0,0,0,17.68,13,13,0,0,0,8.84,3.66Z"/><path class="cls-10" d="M497.1,166.23a12.93,12.93,0,0,0,8.84-3.66,12.51,12.51,0,0,0,0-17.68,12.51,12.51,0,0,0-17.68,0,12.51,12.51,0,0,0,0,17.68,13,13,0,0,0,8.84,3.66Z"/><path class="cls-10" d="M497,167.25a12.86,12.86,0,0,0,8.84-3.66,12.51,12.51,0,0,0,0-17.68,12.51,12.51,0,0,0-17.68,0,12.51,12.51,0,0,0,0,17.68,13,13,0,0,0,8.84,3.66Z"/><path class="cls-10" d="M535.28,218.36a71.55,71.55,0,0,0,15.59-1.16,14,14,0,0,0,7.47-5.75,9.35,9.35,0,0,0,1.48-4.65,9.48,9.48,0,0,0-.22-5l-1.26-3a12.68,12.68,0,0,0-4.49-4.48l-3-1.26a12.51,12.51,0,0,0-6.65,0l-1.87.29,3.32-.45a56.42,56.42,0,0,1-10.39.43,9.39,9.39,0,0,0-4.82,1.08,9.29,9.29,0,0,0-4,2.58,13.8,13.8,0,0,0-3.66,8.84l.44,3.32a12.55,12.55,0,0,0,3.22,5.52l2.53,2a12.48,12.48,0,0,0,6.31,1.71Z"/><path class="cls-10" d="M545.87,220.87a12.94,12.94,0,0,0,8.84-3.66,12.51,12.51,0,0,0,0-17.68,12.51,12.51,0,0,0-17.68,0,12.51,12.51,0,0,0,0,17.68,13,13,0,0,0,8.84,3.66Z"/><path class="cls-10" d="M546.38,222.4a12.94,12.94,0,0,0,8.84-3.66,12.51,12.51,0,0,0,0-17.68,13,13,0,0,0-8.84-3.66,12.88,12.88,0,0,0-8.84,3.66,12.51,12.51,0,0,0,0,17.68,13,13,0,0,0,8.84,3.66Z"/><path class="cls-10" d="M544.59,223.17a12.89,12.89,0,0,0,8.84-3.67,12.49,12.49,0,0,0,0-17.67,12.51,12.51,0,0,0-17.68,0,12.49,12.49,0,0,0,0,17.67,13,13,0,0,0,8.84,3.67Z"/><path class="cls-10" d="M544.46,224.19a12.93,12.93,0,0,0,8.84-3.66,12.7,12.7,0,0,0,3.66-8.84,12.57,12.57,0,0,0-3.66-8.84,12.51,12.51,0,0,0-17.68,0,12.51,12.51,0,0,0,0,17.68,13,13,0,0,0,8.84,3.66Z"/><path class="cls-10" d="M537.31,223.93a12.86,12.86,0,0,0,8.84-3.66,12.51,12.51,0,0,0,0-17.68,12.51,12.51,0,0,0-17.68,0,12.51,12.51,0,0,0,0,17.68,13,13,0,0,0,8.84,3.66Z"/><path class="cls-10" d="M535,224.44a12.86,12.86,0,0,0,8.83-3.66,12.48,12.48,0,0,0,0-17.68,12.49,12.49,0,0,0-17.67,0,12.51,12.51,0,0,0,0,17.68,13,13,0,0,0,8.84,3.66Z"/><path class="cls-10" d="M526.85,223.17a12.87,12.87,0,0,0,8.83-3.67,12.47,12.47,0,0,0,0-17.67,12.49,12.49,0,0,0-17.67,0,12.49,12.49,0,0,0,0,17.67,13,13,0,0,0,8.84,3.67Z"/><path class="cls-10" d="M522.25,221.38a12.94,12.94,0,0,0,8.84-3.66,12.51,12.51,0,0,0,0-17.68,12.51,12.51,0,0,0-17.68,0,12.51,12.51,0,0,0,0,17.68,13,13,0,0,0,8.84,3.66Z"/><path class="cls-10" d="M519.06,220.1a12.9,12.9,0,0,0,8.84-3.66,12.51,12.51,0,0,0,0-17.68,12.51,12.51,0,0,0-17.68,0,12.51,12.51,0,0,0,0,17.68,13,13,0,0,0,8.84,3.66Z"/><path class="cls-10" d="M514.85,216.65a12.86,12.86,0,0,0,8.83-3.66,12.47,12.47,0,0,0,0-17.67,12.47,12.47,0,0,0-17.67,0A12.49,12.49,0,0,0,506,213a13,13,0,0,0,8.84,3.66Z"/><path class="cls-10" d="M511.4,213.59a12.9,12.9,0,0,0,8.84-3.66,12.51,12.51,0,0,0,0-17.68,13,13,0,0,0-8.84-3.66,12.88,12.88,0,0,0-8.84,3.66,12.51,12.51,0,0,0,0,17.68,13,13,0,0,0,8.84,3.66Z"/><path class="cls-10" d="M510.12,212.7A12.93,12.93,0,0,0,519,209a12.7,12.7,0,0,0,3.66-8.84,12.57,12.57,0,0,0-3.66-8.84,12.51,12.51,0,0,0-17.68,0,12.51,12.51,0,0,0,0,17.68,13,13,0,0,0,8.84,3.66Z"/><path class="cls-10" d="M509.48,211.8a12.86,12.86,0,0,0,8.84-3.66,12.51,12.51,0,0,0,0-17.68,12.51,12.51,0,0,0-17.68,0,12.51,12.51,0,0,0,0,17.68,13,13,0,0,0,8.84,3.66Z"/><path class="cls-10" d="M514.59,217.17a12.89,12.89,0,0,0,8.84-3.67,12.49,12.49,0,0,0,0-17.67,12.51,12.51,0,0,0-17.68,0,12.49,12.49,0,0,0,0,17.67,13,13,0,0,0,8.84,3.67Z"/><path class="cls-10" d="M517.14,218.7A12.91,12.91,0,0,0,526,215a12.7,12.7,0,0,0,3.66-8.84,12.57,12.57,0,0,0-3.66-8.84,12.51,12.51,0,0,0-17.68,0,12.51,12.51,0,0,0,0,17.68,13,13,0,0,0,8.84,3.66Z"/><path class="cls-10" d="M517.14,218.82a12.86,12.86,0,0,0,8.84-3.66,12.49,12.49,0,0,0,0-17.67,12.48,12.48,0,0,0-17.68,0,12.49,12.49,0,0,0,0,17.67,13,13,0,0,0,8.84,3.66Z"/><path class="cls-10" d="M500.29,157.29a12.88,12.88,0,0,0,8.84-3.66,12.51,12.51,0,0,0,0-17.68,12.51,12.51,0,0,0-17.68,0,12.51,12.51,0,0,0,0,17.68,13,13,0,0,0,8.84,3.66Z"/><path class="cls-10" d="M499,159.72a12.9,12.9,0,0,0,8.83-3.66,12.48,12.48,0,0,0,0-17.68,12.49,12.49,0,0,0-17.67,0,12.51,12.51,0,0,0,0,17.68,13,13,0,0,0,8.84,3.66Z"/></g></g></svg>